<svg xmlns="http://www.w3.org/2000/svg" xmlns:xlink="http://www.w3.org/1999/xlink" x="0" y="0" enable-background="new 0 0 360 360" version="1.1" viewBox="0 0 360 360" xml:space="preserve">
<style type="text/css">.st0{fill:#fff}.st1{fill:none} .st3{fill:0092cf}</style>
<g id="Layer_2"><circle id="XMLID_2_" cx="180" cy="180" r="180" class="st0"/></g><g id="Layer_3"><g id="Background_Shapes"><path id="XMLID_15_" d="M180,0C80.6,0,0,80.6,0,180s80.6,180,180,180s180-80.6,180-180S279.4,0,180,0z M180,354.3 c-96,0-173.8-77.8-173.8-173.8S84,6.6,180,6.6s173.8,77.8,173.8,173.8S276,354.3,180,354.3z"/><path id="XMLID_12_" d="M180,48.8c-72.4,0-131.2,58.7-131.2,131.2S107.6,311.2,180,311.2S311.2,252.4,311.2,180 S252.4,48.8,180,48.8z M180,305.8c-69.5,0-125.8-56.3-125.8-125.8S110.5,54.2,180,54.2S305.8,110.5,305.8,180 S249.5,305.8,180,305.8z"/><path id="XMLID_10_" d="M180,54.9L54.9,180L180,305.1L305.1,180L180,54.9z M180,257c-42.5,0-77-34.5-77-77c0-42.5,34.5-77,77-77 s77,34.5,77,77C257,222.5,222.5,257,180,257z"/><g id="XMLID_4_"><path id="XMLID_16_" d="M134.6,182.8c-0.9,0.3-1.6,0.8-2,1.4c-0.5,0.6-0.8,1.5-0.8,2.5c0,1.5,0.4,2.6,1.2,3.2 c0.8,0.6,2,0.8,3.7,0.8c0.8,0,1.7-0.1,2.6-0.6c1-0.4,1.8-1,2.5-1.7v-6.8c-1.7,0.2-3.1,0.3-4.1,0.5 C136.6,182.2,135.6,182.4,134.6,182.8z"/><path id="XMLID_23_" d="M180,109.9c-38.7,0-70.1,31.4-70.1,70.1s31.4,70.1,70.1,70.1s70.1-31.4,70.1-70.1S218.7,109.9,180,109.9z M152,196.9l-10.2,0v-3.4c-0.7,0.6-1.3,1.1-1.9,1.5c-0.5,0.5-1.2,0.9-2.2,1.4c-0.9,0.5-1.8,0.8-2.7,1c-0.9,0.3-2,0.4-3.6,0.4 c-2.9,0-5.3-1-7.2-2.9c-1.9-2-2.9-4.3-2.9-7.3c0-2.5,0.5-4.4,1.4-5.9c1-1.5,2.4-2.7,4.2-3.6c1.8-0.9,4-1.5,6.6-1.8 c2.6-0.3,5.3-0.6,8.3-0.8v-0.2c0-1.8-0.7-3-2-3.7c-1.3-0.7-3.3-1-6-1c-1.2,0-2.6,0.2-4.2,0.7c-1.6,0.4-3.2,1-4.7,1.7h-0.8v-7.9 c1-0.3,2.6-0.6,4.9-1.1c2.3-0.4,4.5-0.6,6.8-0.6c5.6,0,9.7,1,12.3,2.8c2.6,1.9,3.9,4.8,3.9,8.6V196.9z M184.9,174.7h-1.3 c-0.4-0.4-0.9-0.8-1.5-1.2c-0.6-0.5-1.2-0.9-1.9-1.3c-0.7-0.5-1.6-0.7-2.5-1.1c-1-0.3-2-0.4-3.2-0.4c-2.6,0-4.6,0.9-6,2.7 c-1.4,1.8-2.2,4.2-2.2,7.3c0,3.2,0.8,5.7,2.3,7.3c1.5,1.6,3.5,2.4,6.1,2.4c1.3,0,2.4-0.2,3.4-0.4c0.9-0.3,1.8-0.7,2.4-1.1 c0.7-0.4,1.3-0.8,1.8-1.3c0.5-0.4,0.9-0.8,1.2-1.2h1.3v8.7c-0.6,0.3-1.2,0.6-2,0.9c-0.8,0.3-1.5,0.6-2.3,0.8 c-1,0.3-1.9,0.5-2.8,0.6c-0.9,0.2-2,0.3-3.4,0.3v0c-2.7,0-5.2-0.4-7.4-1c-2.2-0.7-4.1-1.7-5.8-3.1c-1.7-1.4-2.9-3.2-3.8-5.3 c-0.9-2.1-1.4-4.7-1.4-7.6c0-3.2,0.5-5.8,1.5-8c1-2.2,2.3-4,4-5.4c1.6-1.4,3.5-2.4,5.8-3c2.2-0.7,4.5-1,6.9-1 c1.8,0,3.6,0.2,5.4,0.7c1.8,0.4,3.6,1.1,5.4,2V174.7z M229.4,196.9v-16.3c0-1.6,0-2.9-0.1-4c-0.1-1.1-0.3-2-0.6-2.7 c-0.3-0.7-0.8-1.2-1.4-1.5c-0.6-0.3-1.5-0.5-2.6-0.5c-0.8,0-1.5,0.1-2.3,0.5c-0.8,0.3-1.6,0.9-2.5,1.4v23.2h-10.2v-16.3 c0-1.6,0-2.9-0.1-4c-0.1-1.1-0.2-2-0.5-2.7c-0.3-0.7-0.8-1.2-1.4-1.5c-0.6-0.3-1.5-0.5-2.6-0.5c-0.9,0-1.7,0.2-2.5,0.6 c-0.8,0.4-1.6,0.9-2.3,1.4v23.2h-10.2v-32.6h10.2v3.6c1.7-1.4,3.2-2.5,4.7-3.3c1.4-0.8,3.1-1.2,5-1.2c2,0,3.7,0.5,5.2,1.4 c1.6,0.9,2.7,2.3,3.5,4.3c2-1.8,3.8-3.2,5.5-4.2c1.7-1,3.5-1.5,5.3-1.5c1.5,0,2.9,0.3,4.1,0.7c1.2,0.5,2.2,1.2,3,2.2 c0.9,1.1,1.6,2.3,2,3.7c0.5,1.4,0.7,3.3,0.7,5.7l0,21.2H229.4z"/></g></g><g id="XMLID_1_"><ellipse id="TextPath_1_" cx="180" cy="179.9" class="st1" rx="136.3" ry="137.2"/><path id="XMLID_39_" d="M32.5,237l0.8,2.5l-1.8,0.6l-3.3-10.3l1.8-0.6l0.8,2.6l11.1-3.6c2.8-0.9,4.6-1.9,5.4-3 c0.9-1.1,1-2.6,0.4-4.5c-0.6-1.8-1.6-3-2.9-3.4c-1.4-0.4-3.4-0.2-6.2,0.7l-11.1,3.6l0.8,2.5l-1.8,0.6l-2.2-7l1.8-0.6l0.8,2.6 l11.4-3.7c3.4-1.1,6-1.2,7.9-0.3c1.9,0.9,3.3,2.8,4.3,6c1,3.1,1,5.5-0.1,7.3s-3.2,3.2-6.6,4.3L32.5,237z"/><path id="XMLID_42_" d="M46,207.7l-1.9,0.2l-0.3-2.7l-19.4,2.2l0.3,2.7l-1.9,0.2l-0.8-6.5l15-14.5L22.5,191l0.3,2.7l-1.9,0.2 l-0.8-7.3l1.9-0.2l0.3,2.7l21.3-2.5l0.4,3.7L28.7,205l14.9-1.7l-0.3-2.7l1.9-0.2L46,207.7z"/><path id="XMLID_44_" d="M43.6,180.2l-1.9-0.1l0.1-2.7l-19.5-0.7l-0.1,2.7l-1.9-0.1l0.4-10.8l1.9,0.1l-0.1,2.7L42,172l0.1-2.7 l1.9,0.1L43.6,180.2z"/><path id="XMLID_46_" d="M24.9,140.2l1.9,0.3l-0.3,1.7l19.7,11.5l-0.6,3.3l-22.5,4.1l-0.3,2l-1.9-0.3l1.7-9.7l1.9,0.3l-0.4,2 l16.2-2.9l-14.2-8.3l-0.4,2.5l-1.9-0.3L24.9,140.2z"/><path id="XMLID_48_" d="M48.6,142.2l-1.8-0.6l0.9-2.5l-18.4-6.6l-0.9,2.5l-1.8-0.6l6.4-17.8l5.2,1.9l-0.7,1.8l-3.2-1.1l-3,8.3 l7,2.5l1.9-5.2l-2.8-1l0.7-1.8l7.6,2.7l-0.7,1.8l-2.8-1l-1.9,5.2l8.9,3.2l3.1-8.6l-3.2-1.1l0.7-1.8l5.2,1.9L48.6,142.2z"/><path id="XMLID_50_" d="M53.7,102.8c0.5-0.7,1.1-1.1,1.9-1.4s1.6-0.3,2.5-0.3l7.2,0.6l1.1-1.9l1.6,0.9l-3.4,6l-7.8-0.6 c-1.6-0.2-2.7-0.2-3.2,0c-0.6,0.2-1.1,0.6-1.5,1.3l-0.4,0.7l7.4,4.3l1.3-2.3l1.6,0.9l-5.4,9.4l-1.6-0.9l1.3-2.3l-17-9.7l-1.3,2.3 l-1.6-0.9l6-10.4c1.2-2.1,2.6-3.5,4.2-4.1c1.6-0.6,3.3-0.4,5,0.6c1.4,0.8,2.3,1.9,2.6,3.1C54.6,99.5,54.4,101,53.7,102.8z M50,107.4l0.9-1.6c0.7-1.1,0.8-2.2,0.5-3.2c-0.3-1-1.1-1.9-2.4-2.6c-1.3-0.7-2.4-1-3.5-0.8c-1,0.2-1.9,0.9-2.5,2l-0.9,1.6 L50,107.4z"/><path id="XMLID_53_" d="M69.2,97.6L65,94.1l1.1-1.4c1.5,0.9,2.9,1.2,4.3,1c1.3-0.2,2.5-1,3.7-2.4c0.9-1.1,1.4-2.2,1.4-3.1 s-0.4-1.8-1.4-2.6c-0.7-0.6-1.4-0.9-2.2-0.8c-0.7,0.1-1.8,0.6-3.2,1.5l-2.7,1.9c-1.8,1.2-3.3,1.8-4.6,1.8c-1.3,0-2.7-0.6-4.2-1.9 c-1.8-1.5-2.7-3.2-2.8-5c-0.1-1.9,0.6-3.8,2.2-5.7c0.8-0.9,1.7-1.9,2.7-2.7c1-0.9,2.2-1.7,3.4-2.5l4,3.3l-1.1,1.4 c-1.4-0.8-2.7-1.1-3.9-0.9c-1.2,0.2-2.3,1-3.4,2.3c-0.9,1.1-1.3,2-1.4,2.9s0.4,1.7,1.2,2.3c0.7,0.6,1.5,0.9,2.2,0.8 c0.7-0.1,1.9-0.6,3.5-1.8l2.7-1.9c1.7-1.2,3.2-1.7,4.7-1.6c1.4,0.1,2.9,0.7,4.5,2c1.8,1.5,2.7,3.2,2.7,5.1s-0.9,4-2.7,6.1 c-0.9,1.1-1.8,2-2.9,2.9C71.7,96.1,70.5,96.9,69.2,97.6z"/><path id="XMLID_55_" d="M84.1,82.3l-1.3-1.4l2-1.8L71.5,64.7l-2,1.8l-1.3-1.4l8-7.3l1.3,1.4l-2,1.8l13.2,14.4l2-1.8L92,75 L84.1,82.3z"/><path id="XMLID_57_" d="M98.2,70l-1.1-1.6l2.3-1.6L88.4,51l-4.7,3.3l2.1,3l-1.6,1.1l-3.3-4.8L98,41.8l3.3,4.8l-1.6,1.1l-2.1-3 l-4.8,3.3l11,15.8l2.3-1.6l1.1,1.6L98.2,70z"/><path id="XMLID_59_" d="M117.1,58.1l-0.8-1.7l2.6-1.2l-3.3-7l-10.7-8l-1.6,0.8l-0.8-1.7l9.1-4.3l0.8,1.7l-2.1,1l8.1,6l0.4-10 l-1.9,0.9l-0.8-1.7l5.4-2.6l0.8,1.7l-1.6,0.8L120,45.1l3.7,7.7l2.6-1.2l0.8,1.7L117.1,58.1z"/><path id="XMLID_61_" d="M155.7,45.4c-3.5,0.6-6.4,0.1-8.8-1.7s-3.9-4.5-4.6-8.2s-0.2-6.8,1.4-9.3c1.6-2.5,4.1-4,7.6-4.7 c3.5-0.6,6.4-0.1,8.7,1.7c2.4,1.8,3.9,4.5,4.5,8.2c0.7,3.7,0.2,6.8-1.4,9.3C161.7,43.2,159.2,44.7,155.7,45.4z M155.3,43.5 c1.8-0.3,2.9-1.4,3.5-3.2c0.6-1.8,0.5-4.4-0.1-7.8c-0.6-3.4-1.5-5.9-2.7-7.3s-2.6-2.1-4.4-1.8c-1.8,0.3-2.9,1.4-3.5,3.2 c-0.6,1.8-0.5,4.4,0.1,7.8c0.6,3.4,1.5,5.8,2.7,7.3C152.1,43.2,153.6,43.8,155.3,43.5z"/><path id="XMLID_64_" d="M170.5,42.9l0-1.9l2.7,0l-0.3-19.5l-2.7,0l0-1.9l18.7-0.3l0.1,5.5l-1.9,0l-0.1-3.4l-8.7,0.1l0.1,7.5 l5.3-0.1l0-3l1.9,0l0.1,8.1l-1.9,0l0-3l-5.3,0.1l0.2,9.7l3.3-0.1l0,1.9L170.5,42.9z"/><path id="XMLID_66_" d="M225.9,50.4l-3.5-1l0.2-17.6l-9.3,15l-3.5-1l0.2-22.3l-2-0.6l0.5-1.8l9.6,2.8l-0.5,1.8l-2.2-0.6L215.4,40 l8.9-14.3l3.8,1.1l-0.2,17.1l8-12.9l-2.4-0.7l0.5-1.8l6.2,1.8l-0.5,1.8l-2.1-0.6L225.9,50.4z"/><path id="XMLID_68_" d="M232.2,52.6l0.9-1.7l1.5,0.8l16.9-15.4l3,1.5l-2.8,22.7l1.8,0.9l-0.9,1.7l-8.7-4.5l0.9-1.7l1.8,0.9l0.7-5 l-7-3.6l-3.8,3.4l2.2,1.1l-0.9,1.7L232.2,52.6z M241.6,47.9l5.8,3l1.2-9.4L241.6,47.9z"/><path id="XMLID_71_" d="M255.7,64.1l3.3-4.4l1.4,1.1c-0.8,1.6-1.1,3-0.8,4.3c0.3,1.3,1.1,2.5,2.6,3.6c1.2,0.9,2.2,1.3,3.2,1.3 c1,0,1.8-0.5,2.5-1.5c0.6-0.7,0.8-1.5,0.7-2.2c-0.1-0.7-0.7-1.8-1.7-3.1l-2-2.6c-1.3-1.7-2-3.2-2-4.5c0-1.3,0.5-2.8,1.7-4.3 c1.4-1.8,3-2.9,4.9-3.1c1.9-0.2,3.8,0.5,5.8,1.9c1,0.7,1.9,1.6,2.9,2.6c0.9,1,1.8,2.1,2.7,3.3l-3.1,4.1l-1.4-1.1 c0.7-1.5,1-2.7,0.7-3.9c-0.3-1.1-1.1-2.2-2.5-3.3c-1.1-0.8-2.1-1.2-3-1.2s-1.7,0.4-2.3,1.3c-0.6,0.8-0.8,1.5-0.7,2.2 c0.1,0.7,0.7,1.8,1.9,3.4l2,2.6c1.2,1.6,1.9,3.1,1.9,4.6c0,1.4-0.6,3-1.8,4.6c-1.4,1.9-3.1,2.9-5,3c-1.9,0.1-4-0.7-6.3-2.4 c-1.1-0.8-2.1-1.7-3-2.8C257.3,66.5,256.5,65.4,255.7,64.1z"/><path id="XMLID_73_" d="M271.8,77.7l1.4-1.3l1.8,2l14.4-13.2l-1.8-2L289,62l7.3,8l-1.4,1.3l-1.8-2l-5.8,5.3l5.6,6.1l5.8-5.3 l-1.8-2l1.4-1.3l7.3,7.9l-1.4,1.3l-1.8-2L288,92.6l1.8,2l-1.4,1.3l-7.3-8l1.4-1.3l1.8,2l7-6.5l-5.6-6.1l-7,6.5l1.8,2l-1.4,1.3 L271.8,77.7z"/><path id="XMLID_75_" d="M290.4,99.3l1.6-1l1.5,2.2l16.3-10.8l-1.5-2.2l1.6-1l6,9l-1.6,1l-1.5-2.3L296.4,105l1.5,2.3l-1.6,1 L290.4,99.3z"/><path id="XMLID_77_" d="M298.7,111.4l1.7-0.8l1.1,2.4l17.7-8.2l-1.1-2.4l1.7-0.8l2.8,6l-9.7,18.4l13.3-6.1l-1.1-2.4l1.7-0.8 l3.1,6.7l-1.7,0.8l-1.1-2.4l-19.5,9l-1.5-3.3l9.9-18.7l-13.6,6.3l1.1,2.4l-1.7,0.8L298.7,111.4z"/><path id="XMLID_79_" d="M329.7,150.7c1.9-0.9,3.2-1.9,3.9-3.1c0.7-1.2,0.8-2.6,0.4-4.4c-0.5-2.1-1.7-3.5-3.5-4.1 c-1.8-0.6-4.5-0.5-7.9,0.4c-3.4,0.8-5.8,1.9-7.2,3.2c-1.4,1.3-1.8,3-1.3,5c0.2,0.8,0.5,1.4,0.8,2.1c0.4,0.6,0.8,1.1,1.3,1.6 l6.2-1.5l-0.6-2.5l1.8-0.4l1.8,7.3l-8.7,2.1c-1.2-1.3-2.1-2.7-2.9-4.1c-0.8-1.4-1.3-2.9-1.7-4.5c-0.9-3.5-0.5-6.5,1.1-9 s4.2-4.2,7.9-5.1c3.7-0.9,6.8-0.6,9.4,0.9c2.6,1.5,4.3,4,5.2,7.5c0.4,1.5,0.5,2.9,0.6,4.4s-0.1,3-0.4,4.6l-5.6,1.4L329.7,150.7z"/><path id="XMLID_81_" d="M315.7,165.5l1.9-0.1l0.2,2.8l19.3-1.2l-0.4-5.7l-3.7,0.2l-0.1-1.9l5.8-0.4l1.3,20.8l-5.8,0.4l-0.1-1.9 l3.7-0.2l-0.4-5.8l-19.3,1.2l0.2,2.8l-1.9,0.1L315.7,165.5z"/><path id="XMLID_83_" d="M315,195.3c0.4-3.5,1.8-6.1,4.1-7.9c2.4-1.8,5.4-2.4,9.2-2c3.7,0.4,6.6,1.7,8.5,4s2.7,5.1,2.3,8.6 c-0.4,3.5-1.8,6.1-4.1,7.9s-5.4,2.4-9.2,2c-3.7-0.4-6.6-1.7-8.5-4C315.4,201.6,314.6,198.8,315,195.3z M316.9,195.5 c-0.2,1.8,0.5,3.2,2.1,4.2c1.6,1,4.1,1.8,7.5,2.1c3.4,0.4,6,0.2,7.8-0.4c1.8-0.7,2.7-1.9,2.9-3.7c0.2-1.8-0.5-3.2-2.1-4.2 c-1.6-1.1-4.1-1.8-7.5-2.2c-3.4-0.4-6-0.2-7.8,0.5C318,192.5,317.1,193.7,316.9,195.5z"/><path id="XMLID_86_" d="M313.5,210.1l1.8,0.6l-0.8,2.6l18.6,5.9l0.8-2.6l1.8,0.6l-2,6.3l-19.6,7.1l13.9,4.4l0.8-2.5l1.8,0.6 l-2.2,7l-1.8-0.6l0.8-2.6l-20.4-6.4l1.1-3.5l19.9-7.2l-14.3-4.5l-0.8,2.5l-1.8-0.6L313.5,210.1z"/></g><g id="XMLID_29_"><circle id="TextPath_2_" cx="180" cy="180" r="164.9" class="st1"/><path id="XMLID_7_" d="M91.7,319.7l0.9-1.7l2.5,1.3l9.6-17.7l-2.5-1.3l0.9-1.7l11.4,6.2c2.3,1.3,3.9,2.7,4.6,4.2 c0.7,1.5,0.6,3.1-0.4,4.9c-0.7,1.3-1.6,2-2.8,2.3c-1.2,0.3-2.7,0.1-4.3-0.6c1.8,1.2,3,2.6,3.5,4.1s0.4,3-0.5,4.6 c-1.1,2.1-2.7,3.3-4.7,3.5c-2,0.2-4.5-0.5-7.5-2.2L91.7,319.7z M100,322l1.8,1c1.6,0.9,3,1.2,4.2,0.9c1.2-0.3,2.2-1.2,3-2.7 c0.8-1.5,1-2.9,0.6-4c-0.4-1.2-1.4-2.2-3-3.1l-1.8-1L100,322z M105.7,311.4l1.7,0.9c1.5,0.8,2.7,1.1,3.8,0.9 c1-0.2,1.9-0.9,2.5-2.1c0.7-1.2,0.8-2.3,0.4-3.2s-1.3-1.8-2.8-2.6l-1.7-0.9L105.7,311.4z"/><path id="XMLID_19_" d="M129.1,337.4c-3.5-1.1-5.9-3.1-7.2-5.8s-1.4-6-0.2-9.7c1.2-3.7,3.1-6.3,5.8-7.8s5.7-1.6,9.2-0.5 c3.5,1.1,5.9,3.1,7.2,5.8s1.3,6,0.1,9.7c-1.2,3.7-3.1,6.3-5.8,7.7C135.6,338.3,132.5,338.5,129.1,337.4z M129.7,335.5 c1.8,0.6,3.4,0.2,4.7-1.2c1.4-1.4,2.6-3.7,3.7-7.1c1.1-3.4,1.5-6.1,1.2-8c-0.3-1.9-1.4-3.2-3.1-3.7c-1.8-0.6-3.3-0.2-4.7,1.2 c-1.4,1.4-2.6,3.8-3.7,7.1c-1.1,3.4-1.5,6-1.1,7.9S127.9,335,129.7,335.5z"/><path id="XMLID_27_" d="M150.6,342.4l0.3-1.9l2.9,0.4l2.8-19.7l-5.9-0.9l-0.5,3.8l-2-0.3l0.9-5.9l21.4,3.1l-0.9,5.9l-2-0.3 l0.5-3.8l-6-0.9l-2.8,19.7l2.9,0.4l-0.3,1.9L150.6,342.4z"/><path id="XMLID_30_" d="M172.4,345.2l-0.1-1.9l2.8-0.1l-0.6-20.1l-2.8,0.1l-0.1-1.9l11.2-0.3l0.1,1.9l-2.8,0.1l0.2,8.1l8.7-0.3 l-0.2-8.1l-2.8,0.1l-0.1-1.9l11.2-0.3l0.1,1.9l-2.8,0.1l0.6,20.1l2.8-0.1l0.1,1.9l-11.2,0.3l-0.1-1.9l2.8-0.1l-0.3-9.9l-8.7,0.3 l0.3,9.9l2.8-0.1l0.1,1.9L172.4,345.2z"/><path id="XMLID_32_" d="M204.4,343.4l-0.4-1.9l2.7-0.6l-4.2-19.7l-2.7,0.6l-0.4-1.9l19.2-4l1.2,5.5l-2,0.4l-0.7-3.4l-9,1.9 l1.6,7.6l5.6-1.2l-0.6-3l2-0.4l1.7,8.1l-2,0.4l-0.6-3l-5.6,1.2l2,9.5l9.2-1.9l-0.7-3.4l2-0.4l1.2,5.5L204.4,343.4z"/><path id="XMLID_34_" d="M229.9,337.5l-0.7-1.8l2.6-1l-7.1-18.8l-2.6,1l-0.7-1.8l10.5-4l0.7,1.8l-2.6,1l7.1,18.6l8-3l-1.3-3.6 l1.9-0.7l2.1,5.6L229.9,337.5z"/><path id="XMLID_36_" d="M252.6,328.4l-1-1.7l2.4-1.4l-9.9-17.6l-2.4,1.4l-1-1.7l9.8-5.5l1,1.7l-2.4,1.4l9.7,17.4l7.5-4.2l-1.9-3.3 l1.7-1l2.9,5.2L252.6,328.4z"/></g><g id="Dots"><circle id="XMLID_38_" cx="297.5" cy="276.8" r="10.7"/><circle id="XMLID_40_" cx="63.3" cy="277.1" r="10.7"/></g></g></svg>