<svg xmlns="http://www.w3.org/2000/svg" viewBox="0 0 360 360"><style>.st1{fill:#a4763a}.st5{fill:none}.st6{fill:#776747}</style><g id="Layer_2"><circle id="XMLID_2_" cx="180" cy="180" r="180" fill="#fff"/></g><g id="Layer_3"><g id="Background_Shapes"><path id="XMLID_15_" class="st1" d="M180 0C80.6 0 0 80.6 0 180s80.6 180 180 180 180-80.6 180-180S279.4 0 180 0zm0 354.3c-96 0-173.8-77.8-173.8-173.8S84 6.6 180 6.6s173.8 77.8 173.8 173.8S276 354.3 180 354.3z"/><path id="XMLID_12_" class="st1" d="M180 48.8c-72.4 0-131.2 58.7-131.2 131.2S107.6 311.2 180 311.2 311.2 252.4 311.2 180 252.4 48.8 180 48.8zm0 257c-69.5 0-125.8-56.3-125.8-125.8S110.5 54.2 180 54.2 305.8 110.5 305.8 180 249.5 305.8 180 305.8z"/><linearGradient id="XMLID_94_" gradientUnits="userSpaceOnUse" x1="180" y1="54.9" x2="180" y2="305.1"><stop offset="0" stop-color="#14b4da"/><stop offset="1" stop-color="#0985c8"/></linearGradient><path id="XMLID_10_" d="M180 54.9L54.9 180 180 305.1 305.1 180 180 54.9zm0 202.1c-42.5 0-77-34.5-77-77s34.5-77 77-77 77 34.5 77 77-34.5 77-77 77z" fill="url(#XMLID_94_)"/><g id="XMLID_4_"><linearGradient id="XMLID_95_" gradientUnits="userSpaceOnUse" x1="136.787" y1="190.62" x2="136.787" y2="181.558"><stop offset="0" stop-color="#14b4da"/><stop offset="1" stop-color="#0985c8"/></linearGradient><path id="XMLID_16_" d="M134.6 182.8c-.9.3-1.6.8-2 1.4-.5.6-.8 1.5-.8 2.5 0 1.5.4 2.6 1.2 3.2.8.6 2 .8 3.7.8.8 0 1.7-.1 2.6-.6 1-.4 1.8-1 2.5-1.7v-6.8c-1.7.2-3.1.3-4.1.5-1.1.1-2.1.3-3.1.7z" fill="url(#XMLID_95_)"/><linearGradient id="XMLID_96_" gradientUnits="userSpaceOnUse" x1="180" y1="250.099" x2="180" y2="109.901"><stop offset="0" stop-color="#14b4da"/><stop offset="1" stop-color="#0985c8"/></linearGradient><path id="XMLID_23_" d="M180 109.9c-38.7 0-70.1 31.4-70.1 70.1s31.4 70.1 70.1 70.1 70.1-31.4 70.1-70.1-31.4-70.1-70.1-70.1zm-28 87h-10.2v-3.4c-.7.6-1.3 1.1-1.9 1.5-.5.5-1.2.9-2.2 1.4-.9.5-1.8.8-2.7 1-.9.3-2 .4-3.6.4-2.9 0-5.3-1-7.2-2.9-1.9-2-2.9-4.3-2.9-7.3 0-2.5.5-4.4 1.4-5.9 1-1.5 2.4-2.7 4.2-3.6 1.8-.9 4-1.5 6.6-1.8 2.6-.3 5.3-.6 8.3-.8v-.2c0-1.8-.7-3-2-3.7-1.3-.7-3.3-1-6-1-1.2 0-2.6.2-4.2.7-1.6.4-3.2 1-4.7 1.7h-.8v-7.9c1-.3 2.6-.6 4.9-1.1 2.3-.4 4.5-.6 6.8-.6 5.6 0 9.7 1 12.3 2.8 2.6 1.9 3.9 4.8 3.9 8.6v22.1zm32.9-22.2h-1.3c-.4-.4-.9-.8-1.5-1.2-.6-.5-1.2-.9-1.9-1.3-.7-.5-1.6-.7-2.5-1.1-1-.3-2-.4-3.2-.4-2.6 0-4.6.9-6 2.7-1.4 1.8-2.2 4.2-2.2 7.3 0 3.2.8 5.7 2.3 7.3 1.5 1.6 3.5 2.4 6.1 2.4 1.3 0 2.4-.2 3.4-.4.9-.3 1.8-.7 2.4-1.1.7-.4 1.3-.8 1.8-1.3.5-.4.9-.8 1.2-1.2h1.3v8.7c-.6.3-1.2.6-2 .9-.8.3-1.5.6-2.3.8-1 .3-1.9.5-2.8.6-.9.2-2 .3-3.4.3-2.7 0-5.2-.4-7.4-1-2.2-.7-4.1-1.7-5.8-3.1-1.7-1.4-2.9-3.2-3.8-5.3-.9-2.1-1.4-4.7-1.4-7.6 0-3.2.5-5.8 1.5-8s2.3-4 4-5.4c1.6-1.4 3.5-2.4 5.8-3 2.2-.7 4.5-1 6.9-1 1.8 0 3.6.2 5.4.7 1.8.4 3.6 1.1 5.4 2v8.7zm44.5 22.2v-16.3c0-1.6 0-2.9-.1-4s-.3-2-.6-2.7c-.3-.7-.8-1.2-1.4-1.5-.6-.3-1.5-.5-2.6-.5-.8 0-1.5.1-2.3.5-.8.3-1.6.9-2.5 1.4V197h-10.2v-16.3c0-1.6 0-2.9-.1-4s-.2-2-.5-2.7c-.3-.7-.8-1.2-1.4-1.5-.6-.3-1.5-.5-2.6-.5-.9 0-1.7.2-2.5.6-.8.4-1.6.9-2.3 1.4v23.2h-10.2v-32.6h10.2v3.6c1.7-1.4 3.2-2.5 4.7-3.3 1.4-.8 3.1-1.2 5-1.2 2 0 3.7.5 5.2 1.4 1.6.9 2.7 2.3 3.5 4.3 2-1.8 3.8-3.2 5.5-4.2 1.7-1 3.5-1.5 5.3-1.5 1.5 0 2.9.3 4.1.7 1.2.5 2.2 1.2 3 2.2.9 1.1 1.6 2.3 2 3.7.5 1.4.7 3.3.7 5.7v21.2h-9.9z" fill="url(#XMLID_96_)"/></g></g><g id="XMLID_1_"><ellipse id="TextPath_1_" class="st5" cx="180" cy="179.9" rx="136.3" ry="137.2"/><path id="XMLID_39_" class="st6" d="M32.5 237l.8 2.5-1.8.6-3.3-10.3 1.8-.6.8 2.6 11.1-3.6c2.8-.9 4.6-1.9 5.4-3 .9-1.1 1-2.6.4-4.5-.6-1.8-1.6-3-2.9-3.4-1.4-.4-3.4-.2-6.2.7l-11.1 3.6.8 2.5-1.8.6-2.2-7 1.8-.6.8 2.6 11.4-3.7c3.4-1.1 6-1.2 7.9-.3 1.9.9 3.3 2.8 4.3 6 1 3.1 1 5.5-.1 7.3s-3.2 3.2-6.6 4.3L32.5 237z"/><path id="XMLID_42_" class="st6" d="M46 207.7l-1.9.2-.3-2.7-19.4 2.2.3 2.7-1.9.2-.8-6.5 15-14.5-14.5 1.7.3 2.7-1.9.2-.8-7.3 1.9-.2.3 2.7 21.3-2.5.4 3.7L28.7 205l14.9-1.7-.3-2.7 1.9-.2.8 7.3z"/><path id="XMLID_44_" class="st6" d="M43.6 180.2l-1.9-.1.1-2.7-19.5-.7-.1 2.7-1.9-.1.4-10.8 1.9.1-.1 2.7 19.5.7.1-2.7 1.9.1-.4 10.8z"/><path id="XMLID_46_" class="st6" d="M24.9 140.2l1.9.3-.3 1.7 19.7 11.5-.6 3.3-22.5 4.1-.3 2-1.9-.3 1.7-9.7 1.9.3-.4 2 16.2-2.9-14.2-8.3-.4 2.5-1.9-.3 1.1-6.2z"/><path id="XMLID_48_" class="st6" d="M48.6 142.2l-1.8-.6.9-2.5-18.4-6.6-.9 2.5-1.8-.6 6.4-17.8 5.2 1.9-.7 1.8-3.2-1.1-3 8.3 7 2.5 1.9-5.2-2.8-1 .7-1.8 7.6 2.7-.7 1.8-2.8-1-1.9 5.2 8.9 3.2 3.1-8.6-3.2-1.1.7-1.8 5.2 1.9-6.4 17.9z"/><path id="XMLID_50_" class="st6" d="M53.7 102.8c.5-.7 1.1-1.1 1.9-1.4s1.6-.3 2.5-.3l7.2.6 1.1-1.9 1.6.9-3.4 6-7.8-.6c-1.6-.2-2.7-.2-3.2 0-.6.2-1.1.6-1.5 1.3l-.4.7 7.4 4.3 1.3-2.3 1.6.9-5.4 9.4-1.6-.9 1.3-2.3-17-9.7-1.3 2.3-1.6-.9 6-10.4c1.2-2.1 2.6-3.5 4.2-4.1 1.6-.6 3.3-.4 5 .6 1.4.8 2.3 1.9 2.6 3.1.4 1.4.2 2.9-.5 4.7zm-3.7 4.6l.9-1.6c.7-1.1.8-2.2.5-3.2-.3-1-1.1-1.9-2.4-2.6-1.3-.7-2.4-1-3.5-.8-1 .2-1.9.9-2.5 2l-.9 1.6 7.9 4.6z"/><path id="XMLID_53_" class="st6" d="M69.2 97.6L65 94.1l1.1-1.4c1.5.9 2.9 1.2 4.3 1 1.3-.2 2.5-1 3.7-2.4.9-1.1 1.4-2.2 1.4-3.1s-.4-1.8-1.4-2.6c-.7-.6-1.4-.9-2.2-.8-.7.1-1.8.6-3.2 1.5L66 88.2c-1.8 1.2-3.3 1.8-4.6 1.8-1.3 0-2.7-.6-4.2-1.9-1.8-1.5-2.7-3.2-2.8-5-.1-1.9.6-3.8 2.2-5.7.8-.9 1.7-1.9 2.7-2.7 1-.9 2.2-1.7 3.4-2.5l4 3.3-1.1 1.4c-1.4-.8-2.7-1.1-3.9-.9-1.2.2-2.3 1-3.4 2.3-.9 1.1-1.3 2-1.4 2.9s.4 1.7 1.2 2.3c.7.6 1.5.9 2.2.8.7-.1 1.9-.6 3.5-1.8l2.7-1.9c1.7-1.2 3.2-1.7 4.7-1.6 1.4.1 2.9.7 4.5 2 1.8 1.5 2.7 3.2 2.7 5.1s-.9 4-2.7 6.1c-.9 1.1-1.8 2-2.9 2.9-1.1 1-2.3 1.8-3.6 2.5z"/><path id="XMLID_55_" class="st6" d="M84.1 82.3l-1.3-1.4 2-1.8-13.3-14.4-2 1.8-1.3-1.4 8-7.3 1.3 1.4-2 1.8 13.2 14.4 2-1.8L92 75l-7.9 7.3z"/><path id="XMLID_57_" class="st6" d="M98.2 70l-1.1-1.6 2.3-1.6-11-15.8-4.7 3.3 2.1 3-1.6 1.1-3.3-4.8L98 41.8l3.3 4.8-1.6 1.1-2.1-3-4.8 3.3 11 15.8 2.3-1.6 1.1 1.6-9 6.2z"/><path id="XMLID_59_" class="st6" d="M117.1 58.1l-.8-1.7 2.6-1.2-3.3-7-10.7-8-1.6.8-.8-1.7 9.1-4.3.8 1.7-2.1 1 8.1 6 .4-10-1.9.9-.8-1.7 5.4-2.6.8 1.7-1.6.8-.7 12.3 3.7 7.7 2.6-1.2.8 1.7-10 4.8z"/><path id="XMLID_61_" class="st6" d="M155.7 45.4c-3.5.6-6.4.1-8.8-1.7s-3.9-4.5-4.6-8.2-.2-6.8 1.4-9.3c1.6-2.5 4.1-4 7.6-4.7 3.5-.6 6.4-.1 8.7 1.7 2.4 1.8 3.9 4.5 4.5 8.2.7 3.7.2 6.8-1.4 9.3-1.4 2.5-3.9 4-7.4 4.7zm-.4-1.9c1.8-.3 2.9-1.4 3.5-3.2.6-1.8.5-4.4-.1-7.8-.6-3.4-1.5-5.9-2.7-7.3s-2.6-2.1-4.4-1.8c-1.8.3-2.9 1.4-3.5 3.2-.6 1.8-.5 4.4.1 7.8.6 3.4 1.5 5.8 2.7 7.3 1.2 1.5 2.7 2.1 4.4 1.8z"/><path id="XMLID_64_" class="st6" d="M170.5 42.9V41h2.7l-.3-19.5h-2.7v-1.9l18.7-.3.1 5.5h-1.9l-.1-3.4-8.7.1.1 7.5 5.3-.1v-3h1.9l.1 8.1h-1.9v-3l-5.3.1.2 9.7 3.3-.1v1.9l-11.5.3z"/><path id="XMLID_66_" class="st6" d="M225.9 50.4l-3.5-1 .2-17.6-9.3 15-3.5-1 .2-22.3-2-.6.5-1.8 9.6 2.8-.5 1.8-2.2-.6V40l8.9-14.3 3.8 1.1-.2 17.1 8-12.9-2.4-.7.5-1.8 6.2 1.8-.5 1.8-2.1-.6-11.7 18.9z"/><path id="XMLID_68_" class="st6" d="M232.2 52.6l.9-1.7 1.5.8 16.9-15.4 3 1.5-2.8 22.7 1.8.9-.9 1.7-8.7-4.5.9-1.7 1.8.9.7-5-7-3.6-3.8 3.4 2.2 1.1-.9 1.7-5.6-2.8zm9.4-4.7l5.8 3 1.2-9.4-7 6.4z"/><path id="XMLID_71_" class="st6" d="M255.7 64.1l3.3-4.4 1.4 1.1c-.8 1.6-1.1 3-.8 4.3.3 1.3 1.1 2.5 2.6 3.6 1.2.9 2.2 1.3 3.2 1.3s1.8-.5 2.5-1.5c.6-.7.8-1.5.7-2.2-.1-.7-.7-1.8-1.7-3.1l-2-2.6c-1.3-1.7-2-3.2-2-4.5 0-1.3.5-2.8 1.7-4.3 1.4-1.8 3-2.9 4.9-3.1 1.9-.2 3.8.5 5.8 1.9 1 .7 1.9 1.6 2.9 2.6.9 1 1.8 2.1 2.7 3.3l-3.1 4.1-1.4-1.1c.7-1.5 1-2.7.7-3.9-.3-1.1-1.1-2.2-2.5-3.3-1.1-.8-2.1-1.2-3-1.2s-1.7.4-2.3 1.3c-.6.8-.8 1.5-.7 2.2.1.7.7 1.8 1.9 3.4l2 2.6c1.2 1.6 1.9 3.1 1.9 4.6 0 1.4-.6 3-1.8 4.6-1.4 1.9-3.1 2.9-5 3-1.9.1-4-.7-6.3-2.4-1.1-.8-2.1-1.7-3-2.8-1-1.1-1.8-2.2-2.6-3.5z"/><path id="XMLID_73_" class="st6" d="M271.8 77.7l1.4-1.3 1.8 2 14.4-13.2-1.8-2L289 62l7.3 8-1.4 1.3-1.8-2-5.8 5.3 5.6 6.1 5.8-5.3-1.8-2 1.4-1.3 7.3 7.9-1.4 1.3-1.8-2L288 92.6l1.8 2-1.4 1.3-7.3-8 1.4-1.3 1.8 2 7-6.5-5.6-6.1-7 6.5 1.8 2-1.4 1.3-7.3-8.1z"/><path id="XMLID_75_" class="st6" d="M290.4 99.3l1.6-1 1.5 2.2 16.3-10.8-1.5-2.2 1.6-1 6 9-1.6 1-1.5-2.3-16.4 10.8 1.5 2.3-1.6 1-5.9-9z"/><path id="XMLID_77_" class="st6" d="M298.7 111.4l1.7-.8 1.1 2.4 17.7-8.2-1.1-2.4 1.7-.8 2.8 6-9.7 18.4 13.3-6.1-1.1-2.4 1.7-.8 3.1 6.7-1.7.8-1.1-2.4-19.5 9-1.5-3.3 9.9-18.7-13.6 6.3 1.1 2.4-1.7.8-3.1-6.9z"/><path id="XMLID_79_" class="st6" d="M329.7 150.7c1.9-.9 3.2-1.9 3.9-3.1.7-1.2.8-2.6.4-4.4-.5-2.1-1.7-3.5-3.5-4.1-1.8-.6-4.5-.5-7.9.4-3.4.8-5.8 1.9-7.2 3.2-1.4 1.3-1.8 3-1.3 5 .2.8.5 1.4.8 2.1.4.6.8 1.1 1.3 1.6l6.2-1.5-.6-2.5 1.8-.4 1.8 7.3-8.7 2.1c-1.2-1.3-2.1-2.7-2.9-4.1-.8-1.4-1.3-2.9-1.7-4.5-.9-3.5-.5-6.5 1.1-9s4.2-4.2 7.9-5.1c3.7-.9 6.8-.6 9.4.9 2.6 1.5 4.3 4 5.2 7.5.4 1.5.5 2.9.6 4.4s-.1 3-.4 4.6l-5.6 1.4-.6-1.8z"/><path id="XMLID_81_" class="st6" d="M315.7 165.5l1.9-.1.2 2.8 19.3-1.2-.4-5.7-3.7.2-.1-1.9 5.8-.4L340 180l-5.8.4-.1-1.9 3.7-.2-.4-5.8-19.3 1.2.2 2.8-1.9.1-.7-11.1z"/><path id="XMLID_83_" class="st6" d="M315 195.3c.4-3.5 1.8-6.1 4.1-7.9 2.4-1.8 5.4-2.4 9.2-2 3.7.4 6.6 1.7 8.5 4s2.7 5.1 2.3 8.6c-.4 3.5-1.8 6.1-4.1 7.9s-5.4 2.4-9.2 2c-3.7-.4-6.6-1.7-8.5-4-1.9-2.3-2.7-5.1-2.3-8.6zm1.9.2c-.2 1.8.5 3.2 2.1 4.2s4.1 1.8 7.5 2.1c3.4.4 6 .2 7.8-.4 1.8-.7 2.7-1.9 2.9-3.7.2-1.8-.5-3.2-2.1-4.2-1.6-1.1-4.1-1.8-7.5-2.2-3.4-.4-6-.2-7.8.5-1.8.7-2.7 1.9-2.9 3.7z"/><path id="XMLID_86_" class="st6" d="M313.5 210.1l1.8.6-.8 2.6 18.6 5.9.8-2.6 1.8.6-2 6.3-19.6 7.1L328 235l.8-2.5 1.8.6-2.2 7-1.8-.6.8-2.6-20.4-6.4 1.1-3.5 19.9-7.2-14.3-4.5-.8 2.5-1.8-.6 2.4-7.1z"/></g><g id="XMLID_29_"><circle id="TextPath_2_" class="st5" cx="180" cy="180" r="164.9"/><path id="XMLID_7_" class="st6" d="M91.7 319.7l.9-1.7 2.5 1.3 9.6-17.7-2.5-1.3.9-1.7 11.4 6.2c2.3 1.3 3.9 2.7 4.6 4.2.7 1.5.6 3.1-.4 4.9-.7 1.3-1.6 2-2.8 2.3-1.2.3-2.7.1-4.3-.6 1.8 1.2 3 2.6 3.5 4.1s.4 3-.5 4.6c-1.1 2.1-2.7 3.3-4.7 3.5-2 .2-4.5-.5-7.5-2.2l-10.7-5.9zm8.3 2.3l1.8 1c1.6.9 3 1.2 4.2.9 1.2-.3 2.2-1.2 3-2.7.8-1.5 1-2.9.6-4-.4-1.2-1.4-2.2-3-3.1l-1.8-1-4.8 8.9zm5.7-10.6l1.7.9c1.5.8 2.7 1.1 3.8.9 1-.2 1.9-.9 2.5-2.1.7-1.2.8-2.3.4-3.2s-1.3-1.8-2.8-2.6l-1.7-.9-3.9 7z"/><path id="XMLID_19_" class="st6" d="M129.1 337.4c-3.5-1.1-5.9-3.1-7.2-5.8s-1.4-6-.2-9.7c1.2-3.7 3.1-6.3 5.8-7.8s5.7-1.6 9.2-.5c3.5 1.1 5.9 3.1 7.2 5.8s1.3 6 .1 9.7c-1.2 3.7-3.1 6.3-5.8 7.7-2.6 1.5-5.7 1.7-9.1.6zm.6-1.9c1.8.6 3.4.2 4.7-1.2 1.4-1.4 2.6-3.7 3.7-7.1 1.1-3.4 1.5-6.1 1.2-8-.3-1.9-1.4-3.2-3.1-3.7-1.8-.6-3.3-.2-4.7 1.2-1.4 1.4-2.6 3.8-3.7 7.1-1.1 3.4-1.5 6-1.1 7.9s1.2 3.3 3 3.8z"/><path id="XMLID_27_" class="st6" d="M150.6 342.4l.3-1.9 2.9.4 2.8-19.7-5.9-.9-.5 3.8-2-.3.9-5.9 21.4 3.1-.9 5.9-2-.3.5-3.8-6-.9-2.8 19.7 2.9.4-.3 1.9-11.3-1.5z"/><path id="XMLID_30_" class="st6" d="M172.4 345.2l-.1-1.9 2.8-.1-.6-20.1-2.8.1-.1-1.9 11.2-.3.1 1.9-2.8.1.2 8.1 8.7-.3-.2-8.1-2.8.1-.1-1.9 11.2-.3.1 1.9-2.8.1.6 20.1 2.8-.1.1 1.9-11.2.3-.1-1.9 2.8-.1-.3-9.9-8.7.3.3 9.9 2.8-.1.1 1.9-11.2.3z"/><path id="XMLID_32_" class="st6" d="M204.4 343.4l-.4-1.9 2.7-.6-4.2-19.7-2.7.6-.4-1.9 19.2-4 1.2 5.5-2 .4-.7-3.4-9 1.9 1.6 7.6 5.6-1.2-.6-3 2-.4 1.7 8.1-2 .4-.6-3-5.6 1.2 2 9.5 9.2-1.9-.7-3.4 2-.4 1.2 5.5-19.5 4.1z"/><path id="XMLID_34_" class="st6" d="M229.9 337.5l-.7-1.8 2.6-1-7.1-18.8-2.6 1-.7-1.8 10.5-4 .7 1.8-2.6 1 7.1 18.6 8-3-1.3-3.6 1.9-.7 2.1 5.6-17.9 6.7z"/><path id="XMLID_36_" class="st6" d="M252.6 328.4l-1-1.7 2.4-1.4-9.9-17.6-2.4 1.4-1-1.7 9.8-5.5 1 1.7-2.4 1.4 9.7 17.4 7.5-4.2-1.9-3.3 1.7-1 2.9 5.2-16.4 9.3z"/></g><g id="Dots"><circle id="XMLID_38_" class="st6" cx="297.5" cy="276.8" r="10.7"/><circle id="XMLID_40_" class="st6" cx="63.3" cy="277.1" r="10.7"/></g></g></svg>