<svg width="60" height="60" xmlns="http://www.w3.org/2000/svg"><path d="M41.271 22.578v-.006c.502 0 1.005.01 1.508-.002.646-.016 1.172-.57 1.172-1.217v-2.89c0-.691-.547-1.24-1.236-1.241h-2.883a1.234 1.234 0 0 0-1.236 1.243c-.001.955-.004 1.91.003 2.865a1.4 1.4 0 0 0 .073.426c.173.508.639.82 1.209.823l1.39-.001zM32 23.817a6.181 6.181 0 0 0-.142 12.361c3.454.074 6.248-2.686 6.321-6.043.075-3.46-2.717-6.32-6.179-6.318zm-11.954 3.299v13.627c0 .649.562 1.208 1.212 1.208h21.479c.656 0 1.215-.557 1.215-1.212V27.117H41.04a9.545 9.545 0 0 1 .376 4.014 9.322 9.322 0 0 1-1.316 3.803 9.482 9.482 0 0 1-12.725 3.346c-1.579-.885-2.819-2.12-3.685-3.713-1.289-2.373-1.495-4.865-.739-7.451h-2.905zm24.159 18.139c.159-.026.318-.049.475-.083 1.246-.265 2.264-1.304 2.508-2.557.025-.137.045-.273.067-.409V17.794c-.021-.133-.04-.268-.065-.401a3.301 3.301 0 0 0-2.78-2.618c-.058-.007-.113-.02-.17-.03H19.761c-.147.027-.296.047-.441.08a3.29 3.29 0 0 0-2.545 2.766c-.008.057-.02.114-.029.171V42.24c.028.154.05.311.085.465a3.302 3.302 0 0 0 2.77 2.52c.064.008.13.021.195.03h24.409zM0 0h60v60H0V0z" fill="#010101" fill-rule="evenodd"/></svg>