<svg xmlns="http://www.w3.org/2000/svg" width="6546" height="4048" preserveAspectRatio="xMidYMid meet" version="1.0" viewBox="0 0 12000 7420"><g id="layer101" fill="#010101" stroke="none"><path d="M1575 6276 c-526 -118 -941 -460 -1155 -951 -51 -119 -90 -322 -90 -475 0 -287 75 -653 176 -866 69 -145 217 -319 394 -461 138 -111 244 -167 452 -236 195 -66 354 -87 646 -87 l174 0 -7 -62 c-8 -84 18 -354 49 -511 65 -320 229 -647 457 -913 247 -288 632 -524 993 -609 354 -83 725 -69 1051 39 145 48 388 170 497 248 168 122 329 274 414 392 l21 29 13 -69 c32 -176 129 -453 211 -602 290 -529 750 -880 1308 -999 115 -25 145 -27 351 -28 264 0 354 13 555 80 378 125 692 351 926 665 165 221 263 418 341 680 79 270 101 588 62 904 l-7 59 73 -6 c102 -9 268 9 375 39 416 118 722 451 817 889 23 107 16 375 -15 556 -15 86 -33 176 -41 201 l-13 45 68 7 c276 25 510 280 603 657 47 190 56 342 31 532 -36 272 -127 478 -285 638 -70 71 -100 94 -170 127 -144 69 441 59 -4935 82 -1221 5 -2683 12 -3250 14 -843 4 -1041 3 -1090 -8z"/></g><g id="layer102" fill="#28262b" stroke="none"><path d="M1575 6276 c-526 -118 -941 -460 -1155 -951 -51 -119 -90 -322 -90 -475 0 -287 75 -653 176 -866 105 -222 377 -488 619 -604 281 -136 494 -180 873 -180 l174 0 -7 -62 c-8 -84 18 -354 49 -511 65 -320 229 -647 457 -913 247 -288 632 -524 993 -609 354 -83 725 -69 1051 39 145 48 388 170 497 248 168 122 329 274 414 392 l21 29 13 -69 c32 -176 129 -453 211 -602 290 -529 750 -880 1308 -999 115 -25 145 -27 351 -28 264 0 354 13 555 80 378 125 692 351 926 665 165 221 263 418 341 680 79 270 101 588 62 904 l-7 59 73 -6 c102 -9 268 9 375 39 416 118 722 451 817 889 23 107 16 375 -15 556 -15 86 -33 176 -41 201 l-13 45 68 7 c276 25 510 280 603 657 47 190 56 342 31 532 -36 272 -127 478 -285 638 -70 71 -100 94 -170 127 -144 69 441 59 -4935 82 -1221 5 -2683 12 -3250 14 -843 4 -1041 3 -1090 -8z m697 -72 c15 -8 36 -29 45 -47 17 -30 18 -92 21 -887 3 -912 3 -917 -46 -965 -24 -24 -30 -25 -146 -25 -96 0 -126 3 -145 16 -52 37 -51 26 -51 849 l0 765 -90 0 -90 0 0 -485 c0 -528 1 -519 -56 -564 -17 -13 -41 -21 -65 -21 l-38 0 -3 -239 c-3 -226 -4 -241 -24 -268 -12 -15 -37 -34 -57 -42 -32 -12 -40 -11 -73 6 -21 10 -45 34 -56 53 -17 33 -18 79 -18 905 0 850 1 871 20 903 43 70 35 69 462 64 301 -3 389 -7 410 -18z m1567 -3 c14 -9 34 -30 45 -45 21 -27 21 -37 24 -869 2 -581 -1 -858 -9 -894 -6 -29 -22 -67 -36 -83 l-25 -30 -122 0 c-139 0 -156 7 -187 74 -18 39 -19 80 -19 799 l0 757 -85 0 -85 0 0 -760 c0 -826 1 -804 -56 -849 -25 -20 -37 -21 -153 -19 l-125 3 -22 32 c-41 61 -44 124 -44 876 l0 717 -85 0 -84 0 -3 -501 -3 -501 -37 -34 c-28 -25 -47 -34 -73 -34 l-35 0 0 -195 c0 -107 -5 -218 -11 -247 -28 -128 -149 -160 -207 -55 -16 30 -17 96 -20 895 -2 838 -2 864 17 907 38 85 -10 80 747 77 620 -3 671 -4 693 -21z m997 3 c17 -8 39 -30 50 -47 17 -29 19 -57 22 -346 l3 -313 -27 -84 c-14 -46 -39 -103 -54 -127 l-27 -43 19 -27 c11 -15 35 -64 54 -109 l34 -83 0 -318 c0 -345 -3 -364 -55 -405 -27 -22 -32 -22 -435 -22 -390 0 -408 1 -424 19 -45 50 -45 49 -46 953 0 584 3 866 11 885 12 34 47 73 73 82 10 4 188 6 395 4 312 -3 381 -6 407 -19z m1055 -1 c16 -10 38 -36 49 -58 19 -39 20 -63 20 -398 l0 -357 85 0 84 0 3 368 c3 328 5 370 21 399 27 51 62 63 177 63 115 0 150 -12 177 -63 17 -30 18 -91 21 -872 3 -896 2 -919 -45 -975 l-25 -30 -127 0 c-121 0 -129 1 -150 24 -46 49 -51 95 -51 458 l0 338 -85 0 -85 0 0 -75 c0 -122 -41 -185 -121 -185 l-39 0 0 -227 c0 -202 -3 -233 -19 -270 -23 -49 -45 -63 -101 -63 -50 0 -83 29 -99 86 -7 27 -11 316 -11 900 l0 861 23 34 c33 50 59 59 170 59 76 0 106 -4 128 -17z m1003 -4 c60 -47 61 -50 64 -446 l3 -363 84 0 84 0 3 368 c3 359 3 368 25 403 31 49 59 59 170 59 78 0 101 -4 128 -20 65 -40 65 -40 65 -532 l0 -444 -65 -391 c-35 -215 -73 -415 -84 -444 -11 -29 -33 -65 -48 -81 l-27 -28 -251 0 -251 0 -30 33 c-17 17 -35 39 -41 47 -10 14 -38 162 -135 720 -22 128 -23 159 -23 585 0 414 1 453 18 483 31 58 68 72 183 72 88 0 105 -3 128 -21z m1575 -5 c17 -14 35 -42 41 -62 5 -20 10 -129 10 -242 0 -226 -6 -252 -63 -294 -24 -18 -43 -21 -131 -21 -114 0 -141 11 -176 68 -17 27 -20 51 -20 150 l0 117 -85 0 -85 0 0 -455 c0 -286 -4 -473 -11 -504 -13 -64 -62 -111 -114 -111 l-35 0 0 -130 0 -130 165 0 165 0 0 110 c0 124 15 178 58 207 22 14 48 18 133 18 118 0 145 -9 175 -58 17 -28 19 -56 22 -242 4 -220 -2 -261 -39 -309 l-20 -26 -415 0 -415 0 -24 24 c-13 13 -28 41 -34 62 -7 27 -11 312 -11 886 0 940 -2 909 64 949 29 18 56 19 423 19 l391 0 31 -26z m419 6 c60 -37 62 -51 62 -450 l0 -360 59 0 c70 0 59 -24 96 215 20 126 25 198 25 338 0 199 5 220 63 256 29 18 50 21 135 21 98 0 102 -1 135 -30 23 -20 38 -45 46 -74 13 -54 15 -385 2 -453 -5 -26 -15 -88 -22 -138 -14 -104 -44 -220 -65 -252 -13 -21 -12 -27 4 -60 51 -102 92 -378 92 -623 0 -202 -7 -244 -46 -284 -26 -25 -30 -26 -148 -26 -188 0 -196 11 -196 267 0 138 -6 201 -30 353 -16 102 -30 188 -30 193 0 4 -27 7 -60 7 l-60 0 0 -80 c0 -129 -33 -180 -117 -180 l-43 0 0 -231 c0 -254 -5 -280 -59 -312 -39 -23 -83 -21 -115 4 -59 46 -56 1 -56 940 0 838 1 864 20 903 30 63 58 75 175 76 83 0 106 -4 133 -20z m1582 -8 c15 -16 33 -46 39 -68 7 -25 11 -194 11 -482 0 -487 0 -490 -59 -525 -25 -15 -61 -17 -270 -17 l-241 0 0 -80 c0 -89 -13 -125 -56 -159 -15 -12 -41 -21 -60 -21 l-34 0 0 -130 0 -130 159 0 158 0 5 114 c6 125 18 161 71 200 25 18 42 21 131 21 111 0 139 -10 173 -62 15 -23 18 -57 21 -234 4 -224 -3 -275 -43 -315 l-24 -24 -414 0 c-465 0 -433 -5 -463 77 -20 56 -20 919 0 967 27 65 34 66 303 66 l243 0 0 260 0 260 -85 0 -85 0 0 -117 c0 -130 -11 -164 -67 -200 -39 -26 -204 -26 -251 0 -63 34 -72 73 -72 310 0 233 6 263 62 297 32 19 49 20 426 20 l394 0 28 -28z"/><path d="M1452 6168 c-11 -13 -25 -36 -31 -51 -8 -19 -11 -298 -11 -870 0 -782 1 -845 18 -877 33 -66 109 -64 138 5 11 27 14 86 14 265 l0 230 43 0 c23 0 53 7 66 16 50 35 51 48 51 569 l0 485 120 0 120 0 2 -784 c4 -937 -14 -839 155 -844 104 -2 110 -1 131 21 15 16 26 46 33 88 6 40 9 373 7 874 -3 682 -5 814 -17 838 -29 56 -36 57 -444 57 l-374 0 -21 -22z"/><path d="M2451 6164 c-12 -15 -25 -39 -29 -53 -4 -14 -7 -404 -7 -866 0 -820 0 -841 20 -880 18 -36 24 -40 59 -40 31 0 43 6 60 28 20 27 21 42 24 273 l3 244 44 0 c35 0 52 6 77 29 l33 29 3 506 3 506 119 0 119 0 3 -777 c3 -764 3 -779 24 -813 l20 -35 107 -3 c108 -3 108 -3 137 27 l30 29 0 786 0 786 125 0 125 0 0 -775 c0 -833 -1 -818 49 -845 11 -5 62 -10 114 -10 107 0 126 9 146 69 8 24 11 288 11 887 l0 854 -29 32 -29 33 -670 3 -670 2 -21 -26z"/><path d="M4016 6160 c-14 -17 -28 -45 -31 -63 -3 -18 -5 -410 -3 -872 3 -827 3 -841 24 -875 l20 -35 393 -3 392 -2 30 29 29 29 0 329 0 328 -31 78 c-18 43 -46 94 -64 113 -32 34 -32 34 -11 48 25 16 58 77 86 160 18 54 20 85 20 366 0 199 -4 318 -11 339 -21 60 -29 61 -443 61 l-374 0 -26 -30z m534 -510 l0 -290 -120 0 -120 0 0 290 0 290 120 0 120 0 0 -290z m0 -810 l0 -290 -200 0 -200 0 0 160 0 160 48 0 c36 0 54 5 66 19 29 32 45 92 46 169 l0 72 120 0 120 0 0 -290z"/><path d="M4340 5650 l0 -260 85 0 85 0 0 260 0 260 -85 0 -85 0 0 -260z"/><path d="M4340 5030 c0 -121 -42 -190 -117 -190 l-43 0 0 -130 0 -130 165 0 165 0 0 260 0 260 -85 0 -85 0 0 -70z"/><path d="M5665 6181 c-11 -5 -29 -19 -40 -31 -20 -22 -20 -36 -20 -894 0 -860 0 -871 20 -906 40 -67 111 -47 134 37 6 21 11 135 11 261 l0 222 44 0 c84 0 116 52 116 188 l0 72 120 0 119 0 3 -379 c4 -471 -9 -436 158 -436 174 0 154 -112 158 923 2 654 0 874 -10 896 -7 17 -25 34 -44 42 -40 17 -159 18 -203 3 -60 -21 -61 -29 -61 -444 l0 -375 -120 0 -120 0 0 353 c0 202 -4 367 -10 388 -6 19 -22 46 -36 60 -22 21 -36 24 -112 26 -48 2 -96 -1 -107 -6z"/><path d="M6658 6174 c-58 -31 -58 -33 -58 -507 l0 -435 50 -293 c27 -162 58 -346 69 -409 12 -63 21 -121 21 -127 0 -7 16 -31 36 -53 l36 -40 233 0 233 0 25 30 c39 46 52 98 119 495 l63 370 0 451 c0 491 0 491 -57 520 -32 17 -152 19 -197 3 -64 -23 -66 -32 -69 -446 l-3 -373 -120 0 -119 0 0 373 c0 354 -1 374 -20 405 -11 18 -32 37 -46 42 -39 15 -165 11 -196 -6z m482 -1051 c0 -5 -21 -135 -47 -290 l-48 -283 -82 0 c-46 0 -83 3 -83 8 0 4 -11 70 -25 147 -14 77 -25 143 -25 148 0 4 18 7 41 7 56 0 77 14 89 60 10 37 5 93 -15 188 -5 22 -4 22 95 22 55 0 100 -3 100 -7z"/><path d="M6991 5058 c20 -103 3 -194 -39 -217 -12 -6 -34 -11 -51 -11 -17 0 -31 -1 -31 -2 0 -2 9 -55 20 -118 11 -63 20 -119 20 -123 0 -4 24 -7 53 -5 l52 3 36 213 c21 117 40 233 44 258 l6 44 -59 0 -59 0 8 -42z"/><path d="M7649 6175 c-55 -30 -54 -9 -54 -930 0 -830 0 -851 20 -890 l20 -40 404 0 405 0 20 35 c19 31 21 55 24 206 4 186 -6 268 -39 303 -18 19 -30 21 -124 21 -90 0 -108 -3 -124 -19 -30 -30 -41 -85 -41 -203 l0 -108 -200 0 -200 0 0 160 0 160 45 0 c35 0 52 6 77 29 l33 29 3 506 3 506 119 0 120 0 0 -115 c0 -188 21 -215 166 -215 152 0 164 21 164 285 -1 194 -8 241 -45 273 -26 22 -26 22 -398 22 -302 -1 -377 -3 -398 -15z"/><path d="M8654 6175 c-61 -31 -59 6 -62 -895 -2 -454 0 -845 3 -869 7 -47 49 -101 79 -101 9 0 30 13 48 29 l33 29 3 251 3 251 47 0 c87 0 112 41 112 183 l0 77 89 0 89 0 6 -27 c35 -172 56 -365 56 -519 0 -263 7 -274 163 -274 54 0 107 4 117 10 31 17 42 70 47 230 8 259 -52 622 -112 675 l-23 21 24 23 c34 32 60 127 89 326 27 183 33 389 15 486 -16 84 -41 103 -144 107 -62 3 -91 0 -114 -12 -56 -29 -62 -54 -62 -263 0 -176 -18 -341 -56 -525 l-6 -28 -89 0 -89 0 0 358 c0 207 -4 372 -10 393 -17 61 -40 74 -139 77 -63 2 -94 -2 -117 -13z"/><path d="M9643 6170 c-45 -27 -53 -67 -53 -265 0 -177 8 -227 39 -267 17 -21 29 -23 115 -26 154 -6 176 21 176 213 l0 115 120 0 120 0 0 -290 0 -290 -255 0 -256 0 -24 -24 c-14 -14 -26 -41 -30 -67 -3 -24 -5 -233 -3 -464 3 -403 4 -421 24 -455 l20 -35 402 -3 401 -2 18 27 c16 24 18 57 21 255 l3 228 -30 30 c-28 29 -33 30 -123 30 -149 0 -168 -24 -168 -210 l0 -120 -200 0 -200 0 0 160 0 160 43 0 c84 0 117 51 117 180 l0 80 249 0 249 0 31 26 31 26 0 464 c0 496 -1 508 -49 534 -13 6 -154 10 -388 10 -347 0 -370 -1 -400 -20z"/></g><g id="layer103" fill="#4b3f4d" stroke="none"><path d="M1575 6276 c-526 -118 -941 -460 -1155 -951 -51 -119 -90 -322 -90 -475 0 -287 75 -653 176 -866 105 -222 377 -488 619 -604 281 -136 494 -180 873 -180 l174 0 -7 -62 c-8 -84 18 -354 49 -511 65 -320 229 -647 457 -913 247 -288 632 -524 993 -609 354 -83 725 -69 1051 39 145 48 388 170 497 248 168 122 329 274 414 392 l21 29 13 -69 c32 -176 129 -453 211 -602 290 -529 750 -880 1308 -999 115 -25 145 -27 351 -28 264 0 354 13 555 80 378 125 692 351 926 665 165 221 263 418 341 680 79 270 101 588 62 904 l-7 59 73 -6 c102 -9 268 9 375 39 416 118 722 451 817 889 23 107 16 375 -15 556 -15 86 -33 176 -41 201 l-13 45 68 7 c276 25 510 280 603 657 47 190 56 342 31 532 -36 272 -127 478 -285 638 -70 71 -100 94 -170 127 -144 69 441 59 -4935 82 -1221 5 -2683 12 -3250 14 -843 4 -1041 3 -1090 -8z m695 -70 c14 -6 35 -31 48 -56 l22 -44 0 -851 c0 -576 -4 -862 -11 -889 -6 -21 -21 -49 -34 -62 -23 -23 -31 -24 -154 -24 l-129 0 -25 30 c-14 16 -30 52 -36 80 -7 34 -11 292 -11 780 l0 730 -85 0 -85 0 0 -480 c0 -523 1 -514 -56 -559 -15 -12 -44 -24 -66 -27 l-38 -7 0 -224 c0 -183 -3 -230 -15 -254 -18 -33 -69 -69 -100 -69 -11 0 -34 9 -52 20 -66 40 -63 -11 -63 950 0 955 -3 900 60 954 l31 25 387 -5 c254 -4 396 -10 412 -18z m1576 -7 c66 -40 64 -9 64 -938 0 -901 0 -903 -51 -957 -21 -23 -29 -24 -144 -24 -138 0 -155 7 -186 74 -18 39 -19 80 -19 794 l0 752 -85 0 -85 0 0 -760 c0 -828 2 -793 -56 -839 -24 -19 -40 -21 -149 -21 -113 0 -123 2 -142 23 -48 53 -48 45 -51 845 l-3 752 -84 0 -85 0 0 -490 0 -489 -31 -36 c-21 -23 -47 -40 -75 -47 l-42 -12 -4 -215 c-3 -182 -7 -223 -22 -259 -46 -106 -173 -91 -205 24 -16 56 -15 1708 0 1755 13 39 45 78 72 88 10 4 319 5 685 3 635 -4 668 -5 698 -23z m997 4 c17 -8 37 -32 48 -56 17 -38 19 -69 19 -352 l0 -310 -29 -83 c-16 -46 -40 -100 -53 -120 l-24 -37 22 -33 c13 -19 37 -69 54 -113 l30 -78 0 -316 c0 -343 -3 -362 -55 -403 -27 -22 -32 -22 -435 -22 -456 0 -420 -6 -457 75 -17 37 -18 98 -21 864 -2 598 0 839 9 880 9 42 20 65 49 93 l37 38 389 -7 c308 -4 395 -9 417 -20z m1052 -3 c64 -39 65 -48 65 -449 l0 -361 85 0 84 0 3 368 c3 328 5 370 21 399 27 51 62 63 177 63 115 0 150 -12 177 -63 17 -30 18 -89 18 -897 0 -476 -3 -877 -7 -892 -5 -14 -20 -40 -34 -57 l-26 -31 -127 0 c-119 0 -129 1 -148 23 -48 52 -48 52 -51 435 l-3 362 -85 0 -84 0 0 -75 c0 -119 -37 -178 -122 -191 l-38 -7 0 -212 c0 -117 -3 -227 -6 -244 -4 -17 -19 -45 -34 -61 -24 -25 -36 -30 -77 -30 -56 0 -71 12 -100 75 -17 37 -18 98 -21 869 -2 572 1 846 8 882 9 40 20 60 46 83 34 30 37 31 141 31 88 0 111 -3 138 -20z m1010 -13 c18 -18 38 -51 44 -72 7 -26 11 -165 11 -382 l0 -343 85 0 85 0 0 358 c0 329 2 360 19 399 28 60 59 73 178 73 81 0 104 -4 131 -20 61 -38 62 -42 62 -536 l0 -447 -65 -396 c-68 -410 -84 -471 -136 -519 -22 -21 -30 -22 -275 -22 l-253 0 -36 37 c-19 20 -40 52 -45 72 -13 45 -124 693 -140 816 -8 60 -10 227 -8 505 3 461 1 448 71 490 26 16 51 20 136 20 l103 0 33 -33z m1560 11 c50 -39 55 -68 55 -305 0 -198 -2 -221 -20 -250 -30 -50 -63 -66 -148 -71 -95 -5 -149 9 -187 48 -29 31 -30 33 -33 156 l-4 124 -83 0 -84 0 -3 -482 c-3 -482 -3 -483 -26 -519 -23 -38 -74 -69 -111 -69 -20 0 -21 -5 -21 -125 l0 -125 163 2 162 3 5 125 c6 145 22 181 88 200 54 15 187 12 227 -4 63 -26 70 -54 73 -291 4 -223 -3 -271 -41 -312 l-20 -23 -417 0 c-399 0 -418 1 -434 19 -45 50 -45 49 -46 954 0 945 -2 907 62 947 32 19 49 20 424 20 386 0 392 0 419 -22z m430 0 c57 -45 59 -60 63 -450 l4 -358 54 0 c30 0 54 3 54 8 0 4 10 59 21 122 16 84 23 179 28 355 8 266 13 288 74 325 26 16 50 20 130 20 177 0 191 -20 195 -294 4 -256 -33 -528 -88 -640 -17 -34 -17 -41 -4 -60 47 -73 94 -390 94 -637 0 -197 -8 -248 -45 -285 -23 -23 -31 -24 -153 -24 -120 0 -130 1 -150 23 -39 41 -45 76 -52 307 -5 150 -15 267 -29 350 -11 69 -21 128 -21 133 0 4 -24 7 -54 7 l-53 0 -7 -81 c-11 -132 -40 -175 -126 -186 l-40 -6 0 -231 c0 -211 -2 -233 -19 -260 -44 -66 -111 -74 -169 -22 l-37 34 -3 882 c-2 809 -1 884 15 917 28 59 62 73 184 73 94 0 110 -3 134 -22z m1572 -2 c51 -43 53 -66 53 -551 0 -393 -2 -451 -16 -481 -29 -61 -45 -64 -313 -64 l-239 0 -4 -94 c-3 -89 -5 -96 -33 -126 -17 -18 -49 -36 -72 -43 l-43 -11 0 -123 0 -123 159 0 158 0 5 113 c5 136 22 178 81 209 35 17 54 20 138 16 87 -3 101 -6 125 -28 49 -46 54 -73 54 -292 -1 -210 -8 -257 -46 -299 -16 -18 -35 -19 -434 -19 l-417 0 -20 23 c-11 12 -25 37 -32 56 -15 46 -16 918 0 958 6 15 20 38 31 51 21 22 25 22 270 22 l248 0 0 255 0 255 -85 0 -85 0 0 -112 c0 -94 -3 -118 -20 -145 -34 -57 -62 -68 -175 -68 -119 0 -146 12 -176 81 -18 40 -20 64 -17 263 3 205 4 222 24 248 39 53 40 53 461 53 l391 0 29 -24z"/><path d="M1452 6163 c-21 -20 -32 -44 -37 -74 -3 -24 -5 -417 -3 -874 3 -894 1 -857 54 -886 31 -16 70 -4 91 28 16 24 18 58 21 270 l3 243 42 0 c24 0 53 7 66 16 50 35 51 48 51 569 l0 485 120 0 120 0 0 -762 c0 -494 4 -776 10 -800 17 -58 39 -68 155 -68 96 0 103 1 126 26 l24 26 3 871 c2 901 2 916 -37 937 -9 4 -188 12 -398 16 l-382 7 -29 -30z"/><path d="M2467 6179 c-9 -5 -25 -24 -35 -42 -16 -30 -17 -91 -17 -882 0 -830 0 -851 20 -890 18 -36 24 -40 59 -40 31 0 43 6 60 28 20 27 21 42 24 273 l3 244 42 0 c24 0 53 7 65 16 52 36 52 36 52 564 l0 490 120 0 119 0 3 -777 c3 -764 3 -779 24 -813 l20 -35 107 -3 c108 -3 108 -3 137 27 l30 29 0 786 0 786 125 0 125 0 0 -775 c0 -833 -1 -818 49 -845 11 -5 62 -10 114 -10 107 0 126 9 146 69 8 24 11 288 11 887 l0 854 -27 29 -28 29 -665 6 c-444 4 -671 2 -683 -5z"/><path d="M4018 6162 c-18 -22 -29 -49 -33 -84 -3 -29 -5 -420 -3 -868 3 -792 4 -816 23 -855 l20 -40 393 -3 393 -2 30 29 29 29 0 329 0 328 -31 78 c-18 43 -46 93 -63 111 l-31 33 30 29 c17 17 44 64 60 105 l30 74 0 337 0 338 -25 24 -25 25 -385 7 -386 7 -26 -31z m532 -512 l0 -290 -125 0 -125 0 0 290 0 290 125 0 125 0 0 -290z m0 -810 l0 -290 -200 0 -200 0 0 159 0 160 52 3 c47 3 55 7 75 37 20 29 23 47 23 127 l0 94 125 0 125 0 0 -290z"/><path d="M4340 5034 c0 -125 -39 -190 -119 -201 l-42 -6 3 -121 3 -121 163 -3 162 -2 0 260 0 260 -85 0 -85 0 0 -66z"/><path d="M5637 6162 c-8 -9 -20 -30 -26 -45 -8 -19 -11 -292 -11 -856 0 -719 2 -834 16 -880 17 -57 44 -78 88 -67 54 13 61 47 64 314 l4 242 43 0 c82 0 114 53 115 193 l0 67 120 0 119 0 3 -379 c4 -471 -9 -436 158 -436 173 0 154 -109 158 908 2 469 0 867 -3 885 -11 62 -32 72 -151 72 -58 0 -114 -4 -124 -10 -36 -19 -40 -62 -40 -441 l0 -369 -120 0 -120 0 0 348 c0 191 -4 364 -9 385 -5 22 -19 50 -32 63 -21 22 -29 24 -129 24 -89 0 -110 -3 -123 -18z"/><path d="M6647 6169 c-46 -27 -47 -43 -47 -496 0 -480 -5 -425 96 -1006 47 -272 49 -279 82 -318 l34 -39 230 0 230 0 28 28 c15 16 35 53 44 83 9 30 46 232 81 449 l65 394 0 402 c0 221 -3 415 -6 433 -4 17 -18 42 -32 56 -23 23 -31 25 -127 25 -165 0 -164 2 -165 -477 l0 -343 -120 0 -119 0 -3 379 c-4 468 8 435 -149 438 -59 2 -112 -2 -122 -8z m493 -1046 c0 -5 -21 -135 -47 -290 l-47 -283 -82 0 c-82 0 -82 0 -88 28 -6 30 -46 271 -46 278 0 2 19 4 43 4 24 0 51 6 61 13 35 26 39 106 11 235 -5 22 -4 22 95 22 55 0 100 -3 100 -7z"/><path d="M6996 5016 c10 -130 -18 -186 -94 -186 -27 0 -32 -3 -28 -17 2 -10 12 -67 22 -126 l17 -108 50 3 51 3 42 245 c24 135 43 251 43 258 1 8 -16 12 -55 12 l-55 0 7 -84z"/><path d="M7642 6173 c-7 -3 -19 -18 -27 -33 -13 -25 -15 -150 -15 -890 0 -930 0 -922 52 -935 13 -3 196 -4 407 -3 l385 3 20 35 c18 31 21 55 24 200 4 186 -7 272 -40 307 -19 21 -30 23 -114 23 -155 0 -166 -13 -172 -202 l-4 -128 -199 0 -199 0 0 160 0 160 45 0 c35 0 52 6 77 29 l33 29 3 506 3 506 119 0 120 0 0 -115 c0 -191 22 -219 174 -213 107 3 129 15 146 77 13 47 12 353 -1 411 -19 85 8 80 -433 79 -215 0 -397 -3 -404 -6z"/><path d="M8631 6156 c-12 -13 -27 -41 -32 -63 -12 -51 -11 -1646 1 -1698 9 -40 49 -85 75 -85 8 0 29 13 47 29 l33 29 3 251 3 251 48 0 c84 0 111 45 111 181 l0 79 89 0 89 0 6 -27 c33 -159 56 -364 56 -513 1 -270 7 -280 164 -280 94 0 104 2 124 23 61 64 57 373 -9 706 -23 118 -40 166 -69 191 -20 17 -20 17 1 36 40 36 58 102 94 335 40 256 32 504 -16 556 -21 21 -31 23 -121 23 -162 0 -168 -10 -168 -274 0 -143 -5 -215 -25 -341 -14 -88 -27 -170 -30 -182 -5 -22 -10 -23 -95 -23 l-89 0 -3 379 c-4 469 8 435 -155 439 -104 2 -110 2 -132 -22z"/><path d="M9625 6156 c-32 -32 -38 -82 -33 -288 5 -241 16 -258 171 -258 135 0 157 30 157 215 l0 115 120 0 120 0 0 -290 0 -290 -255 0 c-256 0 -256 0 -280 -24 -34 -34 -37 -79 -33 -536 3 -381 4 -407 23 -445 l20 -40 385 -3 c212 -1 395 0 408 3 46 11 53 55 50 297 l-3 220 -28 24 c-25 22 -37 24 -120 24 -147 0 -167 -25 -167 -210 l0 -120 -200 0 -200 0 0 160 0 160 43 0 c84 0 117 51 117 180 l0 80 249 0 249 0 31 26 31 26 0 466 c0 448 -1 468 -20 500 l-20 32 -395 0 -396 0 -24 -24z"/></g><g id="layer104" fill="#ba2c21" stroke="none"><path d="M1575 6276 c-526 -118 -941 -460 -1155 -951 -51 -119 -90 -322 -90 -475 0 -287 75 -653 176 -866 105 -222 377 -488 619 -604 281 -136 494 -180 873 -180 l174 0 -7 -62 c-8 -84 18 -354 49 -511 65 -320 229 -647 457 -913 247 -288 632 -524 993 -609 354 -83 725 -69 1051 39 145 48 388 170 497 248 168 122 329 274 414 392 l21 29 13 -69 c32 -176 129 -453 211 -602 290 -529 750 -880 1308 -999 115 -25 145 -27 351 -28 264 0 354 13 555 80 378 125 692 351 926 665 165 221 263 418 341 680 79 270 101 588 62 904 l-7 59 73 -6 c102 -9 268 9 375 39 416 118 722 451 817 889 23 107 16 375 -15 556 -15 86 -33 176 -41 201 l-13 45 68 7 c276 25 510 280 603 657 47 190 56 342 31 532 -36 272 -127 478 -285 638 -70 71 -100 94 -170 127 -144 69 441 59 -4935 82 -1221 5 -2683 12 -3250 14 -843 4 -1041 3 -1090 -8z m703 -73 c13 -8 33 -34 43 -58 19 -42 19 -73 17 -912 -3 -817 -4 -870 -21 -901 -28 -51 -71 -64 -193 -60 -92 3 -105 5 -128 27 -56 52 -56 59 -56 863 l0 738 -80 0 -80 0 0 -450 c0 -282 -4 -468 -11 -499 -13 -62 -60 -108 -119 -117 l-40 -7 0 -224 c0 -183 -3 -230 -15 -254 -18 -33 -69 -69 -100 -69 -11 0 -34 9 -52 20 -66 40 -63 -11 -63 950 0 956 -4 900 61 954 l31 26 392 -6 c318 -5 395 -9 414 -21z m1565 0 c17 -9 37 -32 48 -58 19 -43 19 -72 17 -907 l-3 -863 -24 -42 c-30 -53 -58 -63 -176 -63 -79 0 -97 3 -126 23 -72 48 -69 5 -69 850 l0 757 -85 0 -85 0 -2 -774 -3 -775 -29 -30 c-43 -45 -73 -53 -185 -49 -87 3 -102 6 -124 26 -52 49 -51 41 -55 850 l-3 752 -84 0 -85 0 0 -486 c0 -435 -2 -489 -17 -514 -18 -31 -80 -70 -111 -70 -20 0 -20 -7 -24 -222 -3 -210 -5 -226 -26 -266 -52 -97 -173 -77 -201 32 -8 31 -11 299 -11 891 0 922 -2 886 58 937 l30 25 674 -5 c560 -4 678 -7 701 -19z m1000 0 c17 -8 37 -32 48 -56 17 -38 19 -69 19 -353 0 -300 -1 -313 -24 -380 -26 -79 -61 -149 -77 -159 -7 -5 -6 -12 4 -23 19 -22 51 -86 77 -153 19 -50 20 -76 20 -372 0 -344 -2 -359 -55 -407 l-27 -25 -403 0 -403 0 -25 23 c-52 49 -52 51 -52 967 l0 850 23 41 c45 77 29 74 462 67 304 -4 391 -9 413 -20z m1053 -2 c62 -38 64 -50 64 -450 l0 -361 85 0 85 0 0 358 c0 329 2 360 19 399 28 61 59 73 183 73 124 0 157 -15 182 -82 15 -39 16 -125 14 -903 l-3 -860 -22 -41 c-28 -53 -59 -64 -173 -64 -114 0 -145 11 -173 64 -21 40 -22 51 -25 404 l-3 362 -84 0 -85 0 0 -77 c0 -54 -5 -89 -18 -113 -19 -39 -74 -80 -107 -80 l-23 0 -4 -222 c-4 -257 -12 -288 -81 -322 -74 -36 -134 9 -157 118 -7 35 -10 313 -8 881 3 789 4 832 22 868 28 56 54 66 176 67 86 0 111 -4 136 -19z m1007 -11 c53 -46 57 -78 57 -459 l0 -341 85 0 85 0 0 358 c0 329 2 360 19 399 28 60 59 73 178 73 80 0 104 -4 130 -20 64 -38 63 -32 63 -534 l0 -454 -65 -389 c-78 -469 -88 -503 -160 -537 -46 -22 -448 -23 -500 -2 -68 29 -81 65 -136 377 -106 609 -100 546 -97 1033 3 479 1 464 71 506 26 16 51 20 134 20 99 0 103 -1 136 -30z m1566 9 c46 -43 51 -74 51 -306 0 -198 -2 -221 -20 -250 -32 -53 -63 -66 -161 -71 -75 -4 -94 -1 -132 17 -65 31 -77 63 -77 200 l0 111 -85 0 -85 0 0 -462 c0 -305 -4 -477 -11 -502 -14 -51 -61 -94 -110 -102 l-39 -7 0 -118 0 -119 159 0 158 0 6 110 c10 185 42 220 200 220 116 0 151 -15 178 -75 19 -43 20 -63 17 -270 -3 -209 -4 -225 -24 -252 -11 -15 -32 -34 -45 -40 -34 -18 -783 -18 -819 0 -14 6 -35 32 -47 57 l-23 44 0 863 c0 951 -2 914 62 953 32 19 49 20 429 20 390 0 396 0 418 -21z m426 -1 c58 -45 60 -60 63 -450 l3 -358 55 0 c30 0 54 3 54 8 0 4 10 61 22 127 15 87 22 184 27 355 7 260 12 283 74 320 26 16 50 20 129 20 112 0 140 -10 171 -59 20 -33 22 -50 25 -232 3 -160 0 -224 -17 -339 -26 -174 -45 -259 -70 -308 -16 -32 -17 -40 -5 -58 20 -30 50 -155 73 -308 29 -190 30 -511 1 -574 -28 -61 -65 -75 -198 -70 -102 3 -104 4 -132 34 -39 45 -50 109 -50 297 0 127 -6 199 -26 330 l-27 167 -52 0 -52 0 -6 -79 c-10 -128 -39 -175 -119 -187 l-36 -6 -4 -227 c-3 -256 -9 -276 -82 -314 l-39 -20 -43 22 c-79 42 -74 -18 -74 956 0 789 1 870 17 902 28 59 62 73 184 73 94 0 110 -3 134 -22z m1574 -4 c17 -14 35 -42 41 -62 6 -23 10 -212 10 -490 0 -490 0 -490 -54 -526 -22 -14 -59 -16 -266 -16 l-240 0 0 -52 c-1 -74 -17 -139 -43 -166 -27 -29 -69 -52 -97 -52 -19 0 -20 -6 -20 -120 l0 -120 159 0 158 0 5 113 c7 179 42 217 203 217 109 0 146 -16 175 -74 18 -39 20 -61 20 -252 0 -198 -1 -212 -22 -254 -13 -25 -34 -51 -48 -57 -19 -10 -119 -12 -422 -11 l-396 3 -26 24 c-14 14 -30 41 -36 60 -14 52 -13 936 1 964 6 12 21 32 32 45 20 22 24 22 269 22 l248 0 0 255 0 255 -79 0 -79 0 -3 -107 c-5 -118 -19 -157 -72 -197 -25 -18 -42 -21 -132 -21 -116 0 -142 11 -176 75 -17 31 -19 60 -19 253 0 236 4 255 56 296 26 20 36 21 425 21 l397 0 31 -26z"/></g><g id="layer105" fill="#3f698f" stroke="none"><path d="M1762 7224 c-22 -15 -22 -16 -22 -325 l0 -309 -153 0 c-106 0 -157 -4 -165 -12 -7 -7 -12 -44 -12 -95 0 -71 3 -84 19 -93 30 -15 963 -14 979 2 16 16 16 170 0 186 -8 8 -59 12 -165 12 l-153 0 0 308 c0 287 -1 310 -18 325 -26 24 -276 25 -310 1z"/><path d="M2467 7222 c-15 -17 -17 -60 -17 -415 0 -346 2 -398 16 -411 13 -13 42 -16 158 -16 185 0 176 -9 176 178 l0 142 160 0 160 0 0 -148 c0 -102 4 -152 12 -160 8 -8 58 -12 159 -12 141 0 149 1 163 22 14 19 16 75 16 410 0 375 -1 389 -20 408 -18 18 -33 20 -156 20 -74 0 -144 -5 -155 -10 -17 -10 -19 -23 -19 -160 l0 -150 -160 0 -160 0 0 140 c0 187 7 180 -178 180 -122 0 -141 -2 -155 -18z"/><path d="M3681 7221 c-29 -10 -65 -31 -80 -45 l-26 -26 0 -340 0 -339 30 -31 c53 -56 89 -60 491 -60 l363 0 15 22 c18 26 22 122 6 162 l-10 26 -275 0 -275 0 0 55 0 55 160 0 c197 0 200 2 200 110 0 108 -3 110 -200 110 l-160 0 0 50 0 50 265 0 c317 0 305 -4 305 110 0 117 25 110 -397 110 -322 -1 -363 -3 -412 -19z"/><path d="M5565 7225 c-165 -31 -290 -97 -331 -176 -20 -40 -21 -438 0 -477 35 -66 121 -121 256 -163 65 -20 96 -24 230 -24 174 0 225 9 340 62 86 39 134 81 161 138 24 51 23 61 -1 85 -18 18 -33 20 -160 20 l-139 0 -39 -39 c-30 -30 -49 -41 -86 -46 -63 -10 -154 -2 -191 16 l-30 14 -3 172 -2 172 32 17 c43 22 151 29 207 14 28 -7 55 -24 74 -46 l31 -34 148 0 c147 0 148 0 164 25 15 24 15 28 0 70 -59 154 -382 252 -661 200z"/><path d="M6450 7220 c-32 -11 -66 -31 -82 -49 l-28 -31 0 -364 c0 -339 1 -364 18 -379 27 -24 293 -25 316 -1 14 13 16 56 16 320 l0 304 261 0 c160 0 268 4 280 10 17 9 19 22 19 100 0 78 -2 91 -19 100 -13 6 -148 10 -373 10 -320 -1 -358 -2 -408 -20z"/><path d="M7610 7226 c-146 -27 -264 -83 -317 -152 l-28 -37 -3 -201 c-2 -111 0 -216 3 -234 21 -112 219 -207 455 -219 187 -9 341 25 455 102 98 65 105 88 105 322 0 213 -5 239 -59 291 -46 43 -139 90 -228 113 -101 26 -281 33 -383 15z m251 -217 c69 -23 69 -24 69 -206 l0 -164 -42 -19 c-30 -14 -65 -20 -118 -20 -53 0 -88 6 -117 20 l-43 19 0 170 c0 165 1 171 22 182 55 30 167 38 229 18z"/><path d="M8683 7225 c-164 -30 -286 -93 -330 -170 -22 -39 -23 -47 -23 -341 0 -279 1 -302 18 -317 27 -24 293 -25 316 -1 14 13 16 55 16 300 l0 285 38 17 c25 12 63 17 122 17 59 0 97 -5 123 -17 l37 -17 0 -285 c0 -245 2 -287 16 -300 13 -13 42 -16 158 -16 126 0 145 2 159 18 15 16 17 53 17 313 0 264 -2 298 -19 335 -62 137 -386 227 -648 179z"/><path d="M9471 7221 c-21 -21 -21 -29 -21 -409 0 -340 2 -390 16 -411 l16 -22 322 3 c350 5 375 8 506 69 69 32 123 76 146 121 21 39 20 437 0 477 -34 65 -139 129 -276 166 -54 15 -117 19 -377 22 -305 5 -312 4 -332 -16z m617 -224 l32 -18 0 -168 c0 -123 -3 -171 -12 -178 -29 -22 -89 -35 -195 -40 l-113 -6 0 218 0 217 128 -4 c96 -3 135 -8 160 -21z"/><path d="M1575 6276 c-526 -118 -941 -460 -1155 -951 -50 -116 -90 -321 -90 -465 0 -159 24 -369 62 -532 l20 -88 4336 -2 c2385 -2 4706 -3 5157 -3 l820 0 65 24 c229 84 405 314 484 632 47 190 56 342 31 532 -36 272 -127 478 -285 638 -70 71 -100 94 -170 127 -144 69 441 59 -4935 82 -1221 5 -2683 12 -3250 14 -843 4 -1041 3 -1090 -8z m703 -73 c13 -8 33 -34 43 -58 19 -42 19 -73 17 -912 -3 -817 -4 -870 -21 -901 -28 -51 -71 -64 -193 -60 -92 3 -105 5 -128 27 -56 52 -56 59 -56 863 l0 738 -80 0 -80 0 0 -450 c0 -282 -4 -468 -11 -499 -13 -62 -60 -108 -119 -117 l-40 -7 0 -224 c0 -183 -3 -230 -15 -254 -18 -33 -69 -69 -100 -69 -11 0 -34 9 -52 20 -66 40 -63 -11 -63 950 0 956 -4 900 61 954 l31 26 392 -6 c318 -5 395 -9 414 -21z m1565 0 c17 -9 37 -32 48 -58 19 -43 19 -72 17 -907 l-3 -863 -24 -42 c-30 -53 -58 -63 -176 -63 -79 0 -97 3 -126 23 -72 48 -69 5 -69 850 l0 757 -85 0 -85 0 -2 -774 -3 -775 -29 -30 c-43 -45 -73 -53 -185 -49 -87 3 -102 6 -124 26 -52 49 -51 41 -55 850 l-3 752 -84 0 -85 0 0 -486 c0 -435 -2 -489 -17 -514 -18 -31 -80 -70 -111 -70 -20 0 -20 -7 -24 -222 -3 -210 -5 -226 -26 -266 -52 -97 -173 -77 -201 32 -8 31 -11 299 -11 891 0 922 -2 886 58 937 l30 25 674 -5 c560 -4 678 -7 701 -19z m1000 0 c17 -8 37 -32 48 -56 17 -38 19 -69 19 -353 0 -300 -1 -313 -24 -380 -26 -79 -61 -149 -77 -159 -7 -5 -6 -12 4 -23 19 -22 51 -86 77 -153 19 -50 20 -76 20 -372 0 -344 -2 -359 -55 -407 l-27 -25 -403 0 -403 0 -25 23 c-52 49 -52 51 -52 967 l0 850 23 41 c45 77 29 74 462 67 304 -4 391 -9 413 -20z m1053 -2 c62 -38 64 -50 64 -450 l0 -361 85 0 85 0 0 358 c0 329 2 360 19 399 28 61 59 73 183 73 124 0 157 -15 182 -82 15 -39 16 -125 14 -903 l-3 -860 -22 -41 c-28 -53 -59 -64 -173 -64 -114 0 -145 11 -173 64 -21 40 -22 51 -25 404 l-3 362 -84 0 -85 0 0 -77 c0 -54 -5 -89 -18 -113 -19 -39 -74 -80 -107 -80 l-23 0 -4 -222 c-4 -257 -12 -288 -81 -322 -74 -36 -134 9 -157 118 -7 35 -10 313 -8 881 3 789 4 832 22 868 28 56 54 66 176 67 86 0 111 -4 136 -19z m1007 -11 c53 -46 57 -78 57 -459 l0 -341 85 0 85 0 0 358 c0 329 2 360 19 399 28 60 59 73 178 73 80 0 104 -4 130 -20 64 -38 63 -32 63 -534 l0 -454 -65 -389 c-78 -469 -88 -503 -160 -537 -46 -22 -448 -23 -500 -2 -68 29 -81 65 -136 377 -106 609 -100 546 -97 1033 3 479 1 464 71 506 26 16 51 20 134 20 99 0 103 -1 136 -30z m1566 9 c46 -43 51 -74 51 -306 0 -198 -2 -221 -20 -250 -32 -53 -63 -66 -161 -71 -75 -4 -94 -1 -132 17 -65 31 -77 63 -77 200 l0 111 -85 0 -85 0 0 -462 c0 -305 -4 -477 -11 -502 -14 -51 -61 -94 -110 -102 l-39 -7 0 -118 0 -119 159 0 158 0 6 110 c10 185 42 220 200 220 116 0 151 -15 178 -75 19 -43 20 -63 17 -270 -3 -209 -4 -225 -24 -252 -11 -15 -32 -34 -45 -40 -34 -18 -783 -18 -819 0 -14 6 -35 32 -47 57 l-23 44 0 863 c0 951 -2 914 62 953 32 19 49 20 429 20 390 0 396 0 418 -21z m426 -1 c58 -45 60 -60 63 -450 l3 -358 55 0 c30 0 54 3 54 8 0 4 10 61 22 127 15 87 22 184 27 355 7 260 12 283 74 320 26 16 50 20 129 20 112 0 140 -10 171 -59 20 -33 22 -50 25 -232 3 -160 0 -224 -17 -339 -26 -174 -45 -259 -70 -308 -16 -32 -17 -40 -5 -58 20 -30 50 -155 73 -308 29 -190 30 -511 1 -574 -28 -61 -65 -75 -198 -70 -102 3 -104 4 -132 34 -39 45 -50 109 -50 297 0 127 -6 199 -26 330 l-27 167 -52 0 -52 0 -6 -79 c-10 -128 -39 -175 -119 -187 l-36 -6 -4 -227 c-3 -256 -9 -276 -82 -314 l-39 -20 -43 22 c-79 42 -74 -18 -74 956 0 789 1 870 17 902 28 59 62 73 184 73 94 0 110 -3 134 -22z m1574 -4 c17 -14 35 -42 41 -62 6 -23 10 -212 10 -490 0 -490 0 -490 -54 -526 -22 -14 -59 -16 -266 -16 l-240 0 0 -52 c-1 -74 -17 -139 -43 -166 -27 -29 -69 -52 -97 -52 -19 0 -20 -6 -20 -120 l0 -120 159 0 158 0 5 113 c7 179 42 217 203 217 109 0 146 -16 175 -74 18 -39 20 -61 20 -252 0 -198 -1 -212 -22 -254 -13 -25 -34 -51 -48 -57 -19 -10 -119 -12 -422 -11 l-396 3 -26 24 c-14 14 -30 41 -36 60 -14 52 -13 936 1 964 6 12 21 32 32 45 20 22 24 22 269 22 l248 0 0 255 0 255 -79 0 -79 0 -3 -107 c-5 -118 -19 -157 -72 -197 -25 -18 -42 -21 -132 -21 -116 0 -142 11 -176 75 -17 31 -19 60 -19 253 0 236 4 255 56 296 26 20 36 21 425 21 l397 0 31 -26z"/><path d="M1451 6163 c-20 -20 -31 -44 -36 -74 -3 -24 -5 -417 -3 -874 3 -894 1 -857 54 -886 31 -16 70 -4 91 28 16 24 18 58 21 270 l3 243 43 0 c54 0 92 28 106 78 6 23 10 218 10 515 l0 477 120 0 120 0 0 -756 c0 -527 3 -769 11 -800 17 -65 36 -74 151 -74 88 0 99 2 125 24 l28 24 3 874 c2 900 2 917 -37 937 -9 5 -188 12 -398 16 l-382 8 -30 -30z"/><path d="M2467 6179 c-9 -5 -25 -24 -35 -42 -16 -30 -17 -91 -17 -882 0 -830 0 -851 20 -890 17 -34 25 -40 56 -43 40 -3 60 13 78 67 7 21 11 117 11 257 l0 224 43 0 c23 0 53 7 66 16 50 35 51 48 51 569 l0 485 120 0 120 0 0 -753 c0 -648 2 -761 15 -805 9 -29 24 -56 35 -62 10 -5 62 -10 115 -10 93 0 98 1 126 29 l29 29 0 786 0 786 125 0 125 0 0 -776 c0 -551 3 -782 11 -797 24 -48 48 -57 150 -57 109 0 128 9 148 69 8 24 11 288 11 887 l0 854 -27 29 -28 29 -665 6 c-436 3 -671 2 -683 -5z"/><path d="M4022 6167 c-13 -14 -28 -42 -33 -64 -13 -58 -12 -1640 2 -1704 20 -94 -6 -89 435 -89 l386 0 29 29 29 29 0 327 0 326 -31 79 c-17 46 -45 95 -64 115 -31 33 -32 36 -14 46 22 11 68 99 93 175 15 45 16 94 14 373 l-3 321 -25 24 -25 24 -385 7 -385 7 -23 -25z m528 -517 l0 -290 -125 0 -125 0 0 290 0 290 125 0 125 0 0 -290z m0 -810 l0 -290 -200 0 -200 0 0 160 0 160 41 0 c85 0 109 38 109 170 l0 90 125 0 125 0 0 -290z"/><path d="M5637 6162 c-8 -9 -20 -30 -26 -45 -8 -19 -11 -292 -11 -856 0 -719 2 -834 16 -880 17 -57 44 -78 88 -67 54 13 61 47 64 314 l4 242 33 0 c89 0 115 38 115 170 l0 90 125 0 124 0 3 -379 c4 -471 -9 -436 158 -436 174 0 155 -114 155 935 l0 878 -24 26 c-23 25 -29 26 -131 26 -102 0 -108 -1 -131 -26 l-24 -26 -3 -384 -3 -384 -124 0 -125 0 0 379 0 379 -26 31 -26 31 -107 0 c-90 0 -111 -3 -124 -18z"/><path d="M6644 6162 c-43 -35 -44 -43 -44 -492 l0 -430 61 -358 c33 -196 65 -388 72 -426 9 -58 17 -76 47 -108 l37 -38 227 0 228 0 28 29 c40 39 51 85 122 501 l62 365 4 427 c3 449 0 490 -40 528 -19 17 -36 20 -123 20 -165 0 -164 1 -165 -477 l0 -343 -120 0 -119 0 -3 379 c-4 468 8 435 -149 438 -87 3 -108 0 -125 -15z m496 -1044 c0 -7 -21 -138 -47 -290 l-47 -278 -83 0 c-46 0 -83 1 -83 3 0 1 -11 67 -25 147 -14 80 -25 148 -25 153 0 4 19 7 43 7 24 0 51 6 61 13 34 25 38 114 11 235 -5 22 -4 22 95 22 73 0 100 -3 100 -12z"/><path d="M7642 6173 c-7 -3 -19 -18 -27 -33 -13 -25 -15 -150 -15 -890 0 -930 0 -922 52 -935 13 -3 196 -4 407 -3 l385 3 20 35 c18 31 21 55 24 200 4 186 -7 272 -40 307 -20 21 -30 23 -118 23 -150 0 -170 -26 -170 -222 l0 -108 -200 0 -200 0 0 160 0 160 43 0 c23 0 53 7 65 16 52 36 52 36 52 564 l0 490 120 0 120 0 0 -107 c0 -121 10 -171 41 -199 18 -16 37 -19 125 -19 118 0 138 10 154 81 13 53 12 349 -1 404 -19 85 8 80 -433 79 -215 0 -397 -3 -404 -6z"/><path d="M8626 6149 l-26 -31 0 -875 0 -875 29 -29 c37 -36 52 -36 93 0 l33 29 3 251 3 251 50 0 c81 0 109 48 109 188 l0 72 90 0 c85 0 90 -1 95 -22 30 -139 55 -374 55 -518 0 -175 11 -243 43 -265 16 -11 50 -15 122 -15 94 0 103 2 124 24 59 63 53 407 -14 731 -20 95 -38 142 -65 165 -20 17 -20 17 1 36 40 36 63 126 105 402 20 131 16 410 -6 453 -29 56 -36 59 -145 59 -89 0 -104 -3 -124 -21 -37 -34 -41 -62 -41 -257 0 -152 -5 -217 -25 -342 -14 -85 -27 -165 -30 -177 -5 -22 -10 -23 -95 -23 l-90 0 0 353 c0 363 -5 412 -41 448 -16 16 -33 19 -123 19 -104 0 -104 0 -130 -31z"/><path d="M9625 6156 c-31 -31 -38 -93 -33 -298 5 -228 18 -248 166 -248 139 0 162 31 162 213 l0 117 120 0 120 0 0 -290 0 -289 -261 -3 c-257 -3 -261 -3 -279 -26 -28 -34 -32 -110 -28 -542 4 -412 8 -448 48 -470 11 -6 172 -10 404 -10 369 0 387 1 405 19 29 29 33 65 29 294 l-3 209 -28 24 c-25 22 -37 24 -120 24 -146 0 -167 -26 -167 -215 l0 -115 -200 0 -200 0 0 160 0 160 43 0 c84 0 117 51 117 180 l0 80 251 0 251 0 29 29 29 29 0 464 c0 444 -1 464 -20 496 l-20 32 -395 0 -396 0 -24 -24z"/></g><g id="layer106" fill="#9e3f6b" stroke="none"><path d="M1575 6276 c-526 -118 -941 -460 -1155 -951 -50 -116 -90 -321 -90 -465 0 -159 24 -369 62 -532 l20 -88 4336 -2 c2385 -2 4706 -3 5157 -3 l820 0 65 24 c229 84 405 314 484 632 47 190 56 342 31 532 -47 362 -221 653 -458 766 -140 67 439 58 -4932 81 -1221 5 -2683 12 -3250 14 -843 4 -1041 3 -1090 -8z m702 -72 c13 -8 31 -26 40 -41 17 -25 18 -83 18 -913 0 -836 -1 -887 -18 -918 -28 -51 -71 -64 -193 -60 -92 3 -105 5 -128 27 -56 52 -56 59 -56 863 l0 738 -80 0 -80 0 0 -450 c0 -282 -4 -468 -11 -499 -13 -62 -60 -108 -119 -117 l-40 -7 0 -224 c0 -183 -3 -230 -15 -254 -18 -33 -69 -69 -100 -69 -31 0 -82 36 -100 69 -14 27 -15 129 -13 917 l3 885 43 41 43 40 392 -7 c311 -6 397 -10 414 -21z m1567 -3 c16 -9 37 -32 48 -51 18 -34 18 -70 16 -905 l-3 -870 -24 -42 c-30 -53 -58 -63 -176 -63 -79 0 -97 3 -126 23 -72 48 -69 5 -69 850 l0 757 -85 0 -85 0 -2 -774 -3 -775 -29 -30 c-43 -45 -73 -53 -185 -49 -87 3 -102 6 -124 26 -52 49 -51 41 -55 850 l-3 752 -78 0 -78 0 -7 -486 c-7 -541 -5 -523 -76 -563 -21 -12 -47 -21 -58 -21 -20 0 -20 -7 -24 -222 -3 -210 -5 -226 -26 -266 -52 -97 -173 -77 -201 32 -8 31 -11 299 -11 891 0 924 -2 886 59 937 l31 27 673 -6 c597 -5 675 -7 701 -22z m997 3 c14 -7 35 -26 45 -41 18 -26 19 -53 22 -351 3 -311 2 -327 -19 -390 -25 -76 -63 -157 -79 -167 -8 -5 -7 -12 3 -23 19 -22 51 -86 77 -153 19 -50 20 -76 20 -372 0 -344 -2 -359 -55 -407 l-27 -25 -403 0 -403 0 -25 23 c-52 49 -52 51 -52 967 l0 850 23 42 c40 76 28 74 462 67 289 -5 391 -10 411 -20z m1055 -3 c62 -38 64 -50 64 -450 l0 -361 85 0 85 0 0 349 c0 192 3 362 6 379 3 17 19 45 34 64 l28 33 132 0 132 0 29 -34 c16 -20 31 -52 34 -75 3 -23 5 -421 3 -886 l-3 -845 -22 -41 c-28 -53 -59 -64 -173 -64 -114 0 -145 11 -173 64 -21 40 -22 51 -25 404 l-3 362 -84 0 -85 0 0 -77 c0 -54 -5 -89 -18 -113 -19 -39 -74 -80 -107 -80 l-23 0 -4 -222 c-4 -257 -12 -288 -81 -322 -74 -36 -134 9 -157 118 -7 35 -10 314 -8 886 3 776 4 837 21 867 28 51 58 62 177 63 86 0 111 -4 136 -19z m993 4 c16 -8 37 -31 47 -52 17 -35 19 -69 22 -400 l3 -363 79 0 78 0 4 353 c3 314 6 357 22 395 31 72 52 82 175 82 120 0 156 -14 188 -72 17 -30 18 -68 18 -483 l-1 -450 -66 -390 c-81 -473 -91 -505 -163 -539 -46 -22 -448 -23 -500 -2 -68 29 -81 65 -136 377 -104 598 -99 544 -99 1020 0 473 0 470 69 516 30 20 47 23 133 23 67 0 108 -5 127 -15z m1573 4 c11 -6 28 -29 39 -52 16 -37 19 -68 19 -260 0 -257 -5 -277 -78 -309 -37 -17 -61 -20 -136 -16 -149 7 -177 41 -184 221 l-4 107 -79 0 -79 0 0 -462 c0 -305 -4 -477 -11 -502 -14 -51 -61 -94 -110 -102 l-39 -7 0 -118 0 -119 159 0 158 0 6 110 c10 185 42 220 200 220 116 0 151 -15 178 -75 19 -43 20 -63 17 -270 -3 -209 -4 -225 -24 -252 -11 -15 -32 -34 -45 -40 -34 -18 -783 -18 -819 0 -14 6 -35 32 -47 57 l-23 44 0 863 c0 937 -2 907 55 951 27 22 33 22 427 22 267 0 406 -4 420 -11z m432 -10 c60 -47 61 -50 64 -446 l3 -363 55 0 c30 0 54 3 54 8 0 4 9 61 21 127 15 87 23 185 28 360 7 266 9 276 74 315 26 16 51 20 130 20 180 0 191 -16 195 -295 3 -162 -1 -227 -18 -344 -23 -162 -43 -248 -70 -300 -15 -31 -16 -39 -4 -57 20 -30 50 -155 73 -308 29 -190 30 -511 1 -574 -28 -61 -65 -75 -198 -70 -102 3 -104 4 -132 34 -39 45 -50 109 -50 297 0 127 -6 199 -26 330 l-27 167 -52 0 -52 0 -6 -79 c-10 -128 -39 -175 -119 -187 l-36 -6 -4 -227 c-3 -256 -9 -276 -82 -314 l-39 -20 -43 22 c-79 42 -74 -18 -74 955 0 955 -2 917 62 956 28 17 50 20 139 20 93 0 110 -3 133 -21z m1578 -6 c15 -16 32 -41 37 -56 7 -19 11 -188 11 -488 0 -498 0 -497 -54 -533 -22 -14 -59 -16 -266 -16 l-240 0 0 -52 c-1 -74 -17 -139 -43 -166 -27 -29 -69 -52 -97 -52 -19 0 -20 -6 -20 -120 l0 -120 159 0 158 0 5 113 c7 179 42 217 203 217 109 0 146 -16 175 -74 18 -39 20 -61 20 -252 0 -198 -1 -212 -22 -254 -13 -25 -34 -51 -48 -57 -19 -10 -119 -12 -422 -11 l-396 3 -26 24 c-14 14 -30 41 -36 60 -13 46 -13 931 -1 964 6 14 20 35 32 46 22 20 33 21 271 21 l248 0 0 255 0 255 -80 0 -80 0 0 -98 c0 -82 -4 -105 -22 -142 -38 -74 -63 -85 -183 -85 -89 0 -108 3 -132 21 -58 42 -63 67 -63 307 0 236 4 255 56 296 26 21 36 21 428 21 l402 0 26 -27z"/><path d="M4340 5023 c0 -95 -24 -153 -74 -177 -19 -9 -43 -16 -55 -16 -20 0 -21 -5 -21 -120 l0 -120 160 0 160 0 0 255 0 255 -85 0 -85 0 0 -77z"/><path d="M6996 5038 c17 -141 -11 -208 -88 -208 -35 0 -38 -2 -33 -22 6 -31 35 -201 35 -211 0 -4 24 -7 53 -5 l52 3 42 245 c23 135 42 248 43 253 0 4 -25 7 -56 7 l-56 0 8 -62z"/></g><g id="layer107" fill="#e16524" stroke="none"><path d="M6390 3210 c-2318 -3 -4216 -7 -4217 -8 -11 -14 -11 -160 1 -287 19 -212 55 -385 112 -542 202 -559 612 -985 1148 -1194 247 -96 475 -134 746 -126 303 10 520 66 795 202 158 79 267 151 411 275 81 70 191 186 240 254 l21 29 13 -69 c32 -176 129 -453 211 -602 290 -529 750 -880 1308 -999 115 -25 145 -27 351 -28 264 0 354 13 555 80 378 125 692 351 926 665 165 221 263 418 341 680 79 270 101 588 62 904 l-7 59 73 -6 c229 -19 498 54 703 190 146 97 298 266 374 416 30 60 57 122 50 115 -1 -2 -1899 -5 -4217 -8z"/></g><g id="layer108" fill="#44909f" stroke="none"><path d="M1762 7224 c-22 -15 -22 -16 -22 -325 l0 -309 -153 0 c-106 0 -157 -4 -165 -12 -7 -7 -12 -44 -12 -95 0 -71 3 -84 19 -93 30 -15 963 -14 979 2 16 16 16 170 0 186 -8 8 -59 12 -165 12 l-153 0 0 308 c0 287 -1 310 -18 325 -26 24 -276 25 -310 1z m278 -159 l0 -125 -125 0 -125 0 0 125 0 125 125 0 125 0 0 -125z m0 -240 l0 -85 -125 0 -125 0 0 85 0 85 125 0 125 0 0 -85z m0 -180 l0 -65 -125 0 -125 0 0 65 0 65 125 0 125 0 0 -65z m228 -105 l102 0 0 -25 0 -25 -455 0 -455 0 0 25 0 25 168 3 c92 2 250 2 352 1 102 -2 231 -4 288 -4z m102 -95 c0 -13 -57 -15 -455 -15 -398 0 -455 2 -455 15 0 13 57 15 455 15 398 0 455 -2 455 -15z"/><path d="M2467 7222 c-15 -17 -17 -60 -17 -415 0 -346 2 -398 16 -411 13 -13 42 -16 158 -16 185 0 176 -9 176 178 l0 142 160 0 160 0 0 -148 c0 -102 4 -152 12 -160 8 -8 58 -12 159 -12 141 0 149 1 163 22 14 19 16 75 16 410 0 375 -1 389 -20 408 -18 18 -33 20 -156 20 -74 0 -144 -5 -155 -10 -17 -10 -19 -23 -19 -160 l0 -150 -160 0 -160 0 0 140 c0 187 7 180 -178 180 -122 0 -141 -2 -155 -18z m283 -157 l0 -125 -125 0 -125 0 0 125 0 125 125 0 125 0 0 -125z m660 5 l0 -120 -120 0 -120 0 0 120 0 120 120 0 120 0 0 -120z m-660 -180 c0 -19 7 -20 210 -20 203 0 210 1 210 20 0 19 7 20 120 20 l120 0 0 -83 0 -82 -455 0 -455 -1 0 83 0 83 125 0 c118 0 125 -1 125 -20z m0 -245 l0 -65 -125 0 -125 0 0 65 0 65 125 0 125 0 0 -65z m660 0 l0 -65 -120 0 -120 0 0 65 0 65 120 0 120 0 0 -65z m-660 -125 l0 -30 -125 0 -125 0 0 30 0 30 125 0 125 0 0 -30z m660 5 l0 -25 -120 0 -120 0 0 25 0 25 120 0 120 0 0 -25z m-660 -80 c0 -13 -21 -15 -125 -15 -104 0 -125 2 -125 15 0 13 21 15 125 15 104 0 125 -2 125 -15z m660 0 c0 -12 -20 -15 -120 -15 -100 0 -120 3 -120 15 0 13 20 15 120 15 100 0 120 -2 120 -15z"/><path d="M3681 7221 c-29 -10 -65 -31 -80 -45 l-26 -26 0 -340 0 -339 30 -31 c53 -56 89 -60 491 -60 l363 0 15 22 c18 26 22 122 6 162 l-10 26 -275 0 -275 0 0 55 0 55 160 0 c197 0 200 2 200 110 0 108 -3 110 -200 110 l-160 0 0 50 0 50 265 0 c317 0 305 -4 305 110 0 117 25 110 -397 110 -322 -1 -363 -3 -412 -19z m759 -91 l0 -60 -285 0 -285 0 0 -60 0 -60 -125 0 -125 0 0 74 c0 100 9 120 62 140 64 23 67 23 426 25 l332 1 0 -60z m-570 -235 l0 -25 180 0 180 0 0 -60 0 -60 -117 0 c-65 0 -202 -3 -305 -7 l-188 -6 0 91 0 92 125 0 125 0 0 -25z m0 -255 l0 -60 -125 0 -125 0 0 60 0 60 125 0 125 0 0 -60z m348 -100 c215 0 222 -1 222 -20 0 -20 -7 -20 -410 -20 l-410 0 0 27 0 26 188 -6 c103 -4 287 -7 410 -7z m222 -95 c0 -13 -45 -15 -347 -14 -259 0 -358 4 -388 14 -35 11 12 13 348 14 338 1 387 -1 387 -14z"/><path d="M5565 7225 c-165 -31 -290 -97 -331 -176 -20 -40 -21 -438 0 -477 35 -66 121 -121 256 -163 65 -20 96 -24 230 -24 174 0 225 9 340 62 86 39 134 81 161 138 24 51 23 61 -1 85 -18 18 -33 20 -160 20 l-139 0 -39 -39 c-30 -30 -49 -41 -86 -46 -63 -10 -154 -2 -191 16 l-30 14 -3 172 -2 172 32 17 c43 22 151 29 207 14 28 -7 55 -24 74 -46 l31 -34 148 0 c147 0 148 0 164 25 15 24 15 28 0 70 -59 154 -382 252 -661 200z m373 -66 c128 -32 242 -109 242 -162 0 -15 -15 -17 -124 -17 -112 0 -125 2 -130 18 -4 10 -25 29 -49 43 -37 21 -54 24 -152 24 -99 0 -115 -3 -155 -25 -37 -21 -46 -31 -48 -58 l-3 -32 -125 0 -124 0 0 25 c0 55 38 98 126 143 135 69 362 86 542 41z m-418 -334 l0 -95 -125 0 -125 0 0 95 0 95 125 0 125 0 0 -95z m0 -169 c0 -35 5 -48 22 -60 21 -15 12 -16 -114 -16 -155 0 -158 1 -158 79 l0 41 125 0 125 0 0 -44z m660 -34 c0 -37 -20 -42 -159 -42 -125 0 -134 1 -113 16 12 8 22 22 22 30 0 11 23 14 125 14 114 0 125 -2 125 -18z m-85 -98 l-40 -24 -332 0 c-319 0 -333 1 -367 21 -20 12 -36 23 -36 24 0 2 183 4 408 4 l407 0 -40 -25z m-175 -71 c-37 -10 -101 -15 -195 -15 -94 0 -158 5 -195 15 -53 14 -45 15 195 15 240 0 248 -1 195 -15z"/><path d="M6450 7220 c-32 -11 -66 -31 -82 -49 l-28 -31 0 -364 c0 -339 1 -364 18 -379 27 -24 293 -25 316 -1 14 13 16 56 16 320 l0 304 261 0 c160 0 268 4 280 10 17 9 19 22 19 100 0 78 -2 91 -19 100 -13 6 -148 10 -373 10 -320 -1 -358 -2 -408 -20z m750 -90 l0 -60 -280 0 -280 0 0 -60 0 -60 -125 0 -125 0 0 79 c0 96 4 107 44 128 51 27 95 30 439 32 l327 1 0 -60z m-560 -310 l0 -100 -87 0 c-49 0 -105 3 -125 6 l-38 7 0 93 0 94 125 0 125 0 0 -100z m0 -185 l0 -55 -125 0 -125 0 0 55 0 55 125 0 125 0 0 -55z m0 -110 l0 -25 -125 0 -125 0 0 25 0 25 125 0 125 0 0 -25z m0 -75 c0 -19 -7 -20 -125 -20 -118 0 -125 1 -125 20 0 19 7 20 125 20 118 0 125 -1 125 -20z"/><path d="M7610 7226 c-146 -27 -264 -83 -317 -152 l-28 -37 -3 -201 c-2 -111 0 -216 3 -234 21 -112 219 -207 455 -219 187 -9 341 25 455 102 98 65 105 88 105 322 0 213 -5 239 -59 291 -46 43 -139 90 -228 113 -101 26 -281 33 -383 15z m366 -67 c143 -36 244 -106 244 -170 l0 -29 -118 0 -118 0 -11 30 c-8 22 -26 37 -65 55 -121 57 -348 13 -348 -67 0 -16 -11 -18 -126 -18 l-126 0 6 32 c30 149 382 238 662 167z m-115 -150 c69 -23 69 -24 69 -206 l0 -164 -42 -19 c-30 -14 -65 -20 -118 -20 -53 0 -88 6 -117 20 l-43 19 0 170 c0 165 1 171 22 182 55 30 167 38 229 18z m-301 -184 l0 -105 -125 0 -125 0 0 100 0 99 113 4 c61 1 118 4 125 5 9 1 12 -25 12 -103z m660 0 l0 -105 -120 0 -120 0 0 105 0 105 120 0 120 0 0 -105z m-660 -170 c0 -22 8 -43 20 -55 l20 -20 -135 0 c-150 0 -155 2 -155 74 l0 36 125 0 125 0 0 -35z m660 -4 c0 -72 3 -71 -147 -71 l-134 0 20 26 c12 15 21 40 21 55 l0 29 120 0 120 0 0 -39z m-50 -106 c0 -2 -15 -13 -34 -24 -32 -20 -46 -21 -367 -21 l-334 0 -40 24 -40 25 408 0 c224 0 407 -2 407 -4z m-205 -91 c-77 -22 -221 -28 -314 -15 -157 23 -131 30 119 29 228 0 242 -1 195 -14z"/><path d="M8683 7225 c-164 -30 -286 -93 -330 -170 -22 -39 -23 -47 -23 -341 0 -279 1 -302 18 -317 27 -24 293 -25 316 -1 14 13 16 55 16 300 l0 285 38 17 c25 12 63 17 122 17 59 0 97 -5 123 -17 l37 -17 0 -285 c0 -245 2 -287 16 -300 13 -13 42 -16 158 -16 126 0 145 2 159 18 15 16 17 53 17 313 0 264 -2 298 -19 335 -62 137 -386 227 -648 179z m350 -61 c131 -33 211 -78 248 -138 38 -63 34 -66 -106 -66 -114 0 -125 2 -125 18 0 51 -95 92 -210 92 -115 0 -210 -41 -210 -92 0 -16 -11 -18 -126 -18 l-126 0 6 32 c29 144 385 237 649 172z m-403 -339 l0 -105 -125 0 -125 0 0 105 0 105 125 0 125 0 0 -105z m670 -5 l0 -110 -125 0 -125 0 0 110 0 110 125 0 125 0 0 -110z m-737 -137 l67 -6 0 -48 0 -49 -125 0 -125 0 0 55 0 55 58 0 c31 0 87 -3 125 -7z m737 -53 l0 -50 -125 0 -125 0 0 50 0 50 125 0 125 0 0 -50z m-670 -105 l0 -25 -125 0 -125 0 0 25 0 25 125 0 125 0 0 -25z m670 0 l0 -25 -125 0 -125 0 0 25 0 25 125 0 125 0 0 -25z m-670 -75 c0 -19 -7 -20 -125 -20 -118 0 -125 1 -125 20 0 19 7 20 125 20 118 0 125 -1 125 -20z m670 0 c0 -19 -7 -20 -125 -20 -118 0 -125 1 -125 20 0 19 7 20 125 20 118 0 125 -1 125 -20z"/><path d="M9471 7221 c-21 -21 -21 -29 -21 -409 0 -340 2 -390 16 -411 l16 -22 322 3 c350 5 375 8 506 69 69 32 123 76 146 121 21 39 20 437 0 477 -34 65 -139 129 -276 166 -54 15 -117 19 -377 22 -305 5 -312 4 -332 -16z m701 -59 c154 -42 248 -110 248 -182 0 -19 -6 -20 -124 -20 l-125 0 -3 27 c-2 21 -14 34 -48 53 -42 23 -56 25 -207 28 l-163 4 0 -56 0 -56 -120 0 -120 0 0 116 0 117 293 -6 c252 -4 302 -7 369 -25z m-84 -165 l32 -18 0 -168 c0 -123 -3 -171 -12 -178 -29 -22 -89 -35 -195 -40 l-113 -6 0 218 0 217 128 -4 c96 -3 135 -8 160 -21z m-338 -177 l0 -110 -120 0 -120 0 0 110 0 110 120 0 120 0 0 -110z m670 0 l0 -110 -125 0 -125 0 0 110 0 110 125 0 125 0 0 -110z m-670 -190 l0 -50 -120 0 -120 0 0 50 0 50 120 0 120 0 0 -50z m670 19 c0 -66 -6 -69 -158 -69 -126 0 -135 1 -114 16 15 11 22 25 22 50 l0 34 125 0 125 0 0 -31z m-75 -110 c3 -4 -8 -15 -24 -24 -26 -13 -88 -15 -421 -15 l-390 0 0 23 0 23 415 1 c228 0 418 -3 420 -8z m-147 -75 c-21 -20 -184 -33 -425 -34 -256 0 -263 0 -263 20 0 20 7 20 347 20 190 0 344 -3 341 -6z"/><path d="M1575 6276 c-517 -116 -934 -454 -1145 -928 l-37 -83 493 3 493 2 3 441 3 440 43 41 43 40 392 -7 c422 -8 418 -7 454 -62 16 -25 18 -66 21 -460 3 -422 3 -433 22 -433 20 0 20 10 20 420 0 460 0 463 59 512 l31 27 673 -6 c746 -6 711 -2 748 -73 18 -32 19 -64 19 -457 0 -364 2 -423 15 -423 12 0 15 60 17 423 3 416 3 423 26 464 40 77 34 76 466 68 409 -8 416 -9 452 -62 18 -26 19 -53 22 -351 3 -311 2 -327 -19 -390 -12 -37 -30 -84 -40 -104 -11 -21 -19 -40 -19 -43 0 -3 164 -5 365 -5 l364 0 3 428 c3 472 4 474 68 507 45 23 225 21 266 -4 62 -38 64 -50 64 -450 l0 -361 85 0 85 0 0 349 c0 192 3 362 6 379 3 17 19 45 34 64 l28 33 132 0 132 0 28 -33 c15 -19 31 -47 34 -64 3 -17 6 -214 6 -439 0 -357 2 -409 15 -409 13 0 15 53 15 418 0 465 0 463 69 509 30 20 47 23 133 23 116 0 147 -12 174 -67 17 -35 19 -69 22 -400 l3 -363 79 0 78 0 4 353 c3 314 6 357 22 395 31 72 52 82 175 82 120 0 156 -14 188 -72 16 -30 18 -71 21 -455 3 -362 5 -423 18 -423 12 0 14 60 14 420 0 456 1 466 55 508 27 22 33 22 427 22 267 0 406 -4 420 -11 11 -6 28 -29 39 -52 16 -37 19 -68 19 -260 0 -257 -5 -277 -78 -309 -37 -17 -61 -20 -136 -16 -149 7 -177 41 -184 221 l-4 107 -79 0 -79 0 0 -315 0 -315 300 0 300 0 0 420 c0 465 1 473 62 510 28 17 50 20 139 20 93 0 110 -3 133 -21 60 -47 61 -50 64 -446 l3 -363 55 0 c30 0 54 3 54 8 0 4 9 61 21 127 15 87 23 185 28 360 7 266 9 276 74 315 26 16 51 20 130 20 180 0 191 -16 195 -293 3 -161 0 -226 -18 -347 -18 -132 -43 -240 -65 -292 -6 -16 0 -18 58 -18 l65 0 6 34 c4 19 18 46 33 60 l26 26 248 0 249 0 0 255 0 255 -80 0 -80 0 0 -98 c0 -82 -4 -105 -22 -142 -38 -74 -63 -85 -183 -85 -89 0 -108 3 -132 21 -58 42 -63 67 -63 307 0 236 4 255 56 296 26 21 36 21 428 21 l402 0 26 -27 c15 -16 32 -41 37 -56 7 -18 11 -176 11 -448 l0 -419 401 0 401 0 -7 73 c-40 412 -212 723 -468 846 -140 67 439 58 -4932 81 -1221 5 -2683 12 -3250 14 -843 4 -1041 3 -1090 -8z"/><path d="M1451 6163 c-22 -23 -31 -42 -36 -84 -3 -30 -5 -423 -3 -874 3 -883 1 -847 54 -876 31 -16 70 -4 91 28 16 24 18 58 21 269 l4 242 49 4 c58 6 85 27 99 77 6 22 10 226 10 514 l0 477 120 0 120 0 0 -757 c0 -503 4 -771 11 -796 19 -68 36 -77 148 -77 91 0 102 2 128 24 l28 24 3 864 c3 887 2 927 -36 947 -9 5 -189 12 -399 16 l-382 8 -30 -30z"/><path d="M2467 6179 c-9 -6 -25 -24 -35 -42 -16 -30 -17 -91 -17 -882 0 -830 0 -851 20 -890 17 -34 25 -40 56 -43 40 -3 60 13 78 67 7 21 11 117 11 257 l0 224 43 0 c23 0 53 7 66 16 50 35 51 48 51 569 l0 485 120 0 120 0 0 -753 c0 -648 2 -761 15 -805 9 -29 24 -56 35 -62 10 -5 62 -10 115 -10 93 0 98 1 126 29 l29 29 0 786 0 786 125 0 125 0 0 -776 c0 -551 3 -782 11 -797 24 -48 48 -57 149 -57 112 0 132 9 149 72 9 32 11 264 9 895 l-3 853 -25 24 -25 24 -665 5 c-432 4 -671 2 -683 -4z"/><path d="M4021 6163 c-22 -23 -31 -42 -36 -84 -3 -30 -5 -421 -3 -869 3 -860 4 -866 48 -890 11 -6 170 -10 400 -10 l382 0 29 29 29 29 0 327 0 326 -32 81 c-18 44 -46 96 -64 115 -30 31 -31 34 -13 44 22 11 68 99 93 175 15 45 16 94 14 373 l-3 321 -25 24 -25 24 -382 7 -382 8 -30 -30z m529 -513 l0 -290 -125 0 -125 0 0 290 0 290 125 0 125 0 0 -290z m0 -810 l0 -290 -200 0 -200 0 0 160 0 160 41 0 c85 0 109 38 109 170 l0 90 125 0 125 0 0 -290z"/><path d="M4340 5645 l0 -255 85 0 85 0 0 255 0 255 -85 0 -85 0 0 -255z"/><path d="M5637 6162 c-8 -9 -20 -30 -26 -45 -8 -19 -11 -292 -11 -856 0 -719 2 -834 16 -880 17 -57 44 -78 88 -67 54 13 61 47 64 314 l4 242 34 0 c46 0 87 22 102 55 7 14 12 66 12 115 l0 90 125 0 124 0 3 -379 c4 -471 -9 -436 158 -436 174 0 155 -114 155 935 l0 878 -24 26 c-23 25 -29 26 -131 26 -102 0 -108 -1 -131 -26 l-24 -26 -3 -384 -3 -384 -124 0 -125 0 0 379 0 379 -26 31 -26 31 -107 0 c-90 0 -111 -3 -124 -18z"/><path d="M6644 6162 c-43 -35 -44 -43 -44 -492 l0 -431 61 -357 c33 -196 66 -388 72 -426 9 -58 17 -76 47 -108 l37 -38 225 0 c256 0 260 1 293 82 9 24 47 216 83 428 l66 385 4 415 c2 228 1 434 -3 457 -3 24 -18 56 -31 73 -26 30 -27 30 -128 30 -94 0 -104 -2 -124 -23 -35 -37 -42 -112 -42 -463 l0 -334 -120 0 -119 0 -3 379 c-4 468 8 435 -149 438 -87 3 -108 0 -125 -15z m496 -1044 c0 -7 -21 -138 -47 -290 l-47 -278 -83 0 c-46 0 -83 1 -83 3 0 1 -11 67 -25 147 -14 80 -25 148 -25 151 0 4 23 9 51 11 28 3 55 12 60 19 28 43 29 116 4 227 -5 22 -4 22 95 22 73 0 100 -3 100 -12z"/><path d="M7642 6173 c-7 -3 -19 -18 -27 -33 -13 -25 -15 -149 -15 -888 0 -601 3 -869 11 -891 6 -17 19 -36 29 -41 26 -14 775 -13 800 0 34 18 50 101 50 260 0 170 -11 244 -42 277 -20 21 -30 23 -119 23 -87 0 -101 -2 -124 -23 -33 -28 -44 -79 -45 -209 l0 -98 -200 0 -200 0 0 160 0 160 43 0 c23 0 53 7 65 16 52 36 52 36 52 564 l0 490 120 0 120 0 0 -107 c0 -121 10 -171 41 -199 18 -16 37 -19 125 -19 118 0 138 10 154 81 13 53 12 349 -1 404 -19 85 8 80 -433 79 -215 0 -397 -3 -404 -6z"/><path d="M8626 6149 l-26 -31 0 -875 0 -875 29 -29 c37 -36 52 -36 93 0 l33 29 3 251 3 251 50 0 c81 0 109 48 109 188 l0 72 90 0 c85 0 90 -1 94 -22 33 -150 56 -364 56 -513 0 -91 5 -186 11 -211 17 -65 36 -74 151 -74 88 0 99 2 125 24 l28 24 0 249 c0 213 -3 265 -22 368 -30 159 -49 220 -78 249 -21 21 -22 26 -9 37 66 55 114 328 114 649 0 189 -1 198 -23 231 l-23 34 -99 3 c-168 5 -175 -6 -175 -275 0 -153 -5 -218 -25 -343 -14 -85 -27 -165 -30 -177 -5 -22 -10 -23 -95 -23 l-90 0 0 353 c0 363 -5 412 -41 448 -16 16 -33 19 -123 19 -104 0 -104 0 -130 -31z"/><path d="M9626 6156 c-32 -31 -39 -95 -34 -299 6 -228 19 -247 166 -247 139 0 162 31 162 213 l0 117 120 0 120 0 0 -290 0 -289 -261 -3 c-257 -3 -261 -3 -279 -26 -28 -34 -32 -110 -28 -542 4 -412 8 -448 48 -470 11 -6 172 -10 404 -10 369 0 387 1 405 19 29 29 33 65 29 294 l-3 209 -28 24 c-25 22 -37 24 -120 24 -146 0 -167 -26 -167 -215 l0 -115 -200 0 -200 0 0 160 0 160 43 0 c84 0 117 51 117 180 l0 80 251 0 251 0 29 29 29 29 0 459 c0 416 -2 461 -18 493 l-17 35 -398 3 -398 2 -23 -24z"/><path d="M1780 5585 l0 -315 80 0 80 0 0 315 0 315 -80 0 -80 0 0 -315z"/><path d="M2780 5585 l0 -315 80 0 80 0 0 315 0 315 -80 0 -80 0 0 -315z"/><path d="M3340 5585 l0 -315 85 0 85 0 0 315 0 315 -85 0 -85 0 0 -315z"/></g><g id="layer109" fill="#8baa3f" stroke="none"><path d="M2402 2105 c86 -172 275 -417 420 -546 310 -277 655 -437 1063 -495 251 -35 580 -3 830 80 145 48 388 170 497 248 168 122 329 274 414 392 l21 29 13 -69 c32 -176 129 -453 211 -602 290 -529 750 -880 1308 -999 115 -25 145 -27 351 -28 264 0 354 13 555 80 378 125 692 351 926 665 107 144 167 243 228 379 124 276 175 495 196 838 l7 103 -3540 2 -3540 3 40 -80z"/></g><g id="layer110" fill="#fbbf3f" stroke="none"><path d="M9401 2488 c1 -16 3 -18 6 -6 2 9 12 19 21 21 12 3 10 5 -5 6 -18 1 -23 -4 -22 -21z"/><path d="M9422 2320 c0 -19 2 -27 5 -17 2 9 2 25 0 35 -3 9 -5 1 -5 -18z"/><path d="M2402 2105 c86 -172 275 -417 420 -546 310 -277 655 -437 1063 -495 251 -35 580 -3 830 80 145 48 388 170 497 248 168 122 329 274 414 392 l21 29 12 -64 c20 -104 60 -247 101 -354 53 -143 112 -268 120 -255 4 7 510 9 1662 8 l1656 -3 50 115 c120 277 167 478 187 817 l7 103 -3540 2 -3540 3 40 -80z"/></g><g id="layer111" fill="#fff" stroke="none"><path d="M1762 7224 c-22 -15 -22 -16 -22 -325 l0 -309 -153 0 c-106 0 -157 -4 -165 -12 -7 -7 -12 -44 -12 -95 0 -71 3 -84 19 -93 30 -15 963 -14 979 2 16 16 16 170 0 186 -8 8 -59 12 -165 12 l-153 0 0 308 c0 287 -1 310 -18 325 -26 24 -276 25 -310 1z m278 -159 l0 -125 -125 0 -125 0 0 125 0 125 125 0 125 0 0 -125z m0 -240 l0 -85 -125 0 -125 0 0 85 0 85 125 0 125 0 0 -85z m0 -180 l0 -65 -125 0 -125 0 0 65 0 65 125 0 125 0 0 -65z m228 -105 l102 0 0 -25 0 -25 -455 0 -455 0 0 25 0 25 168 3 c92 2 250 2 352 1 102 -2 231 -4 288 -4z m102 -90 c0 -20 -7 -20 -455 -20 -396 0 -455 2 -455 15 0 13 51 15 373 18 204 1 409 3 455 5 76 2 82 1 82 -18z"/><path d="M2467 7222 c-15 -17 -17 -60 -17 -415 0 -346 2 -398 16 -411 13 -13 42 -16 158 -16 185 0 176 -9 176 178 l0 142 160 0 160 0 0 -148 c0 -102 4 -152 12 -160 8 -8 58 -12 159 -12 141 0 149 1 163 22 14 19 16 75 16 410 0 375 -1 389 -20 408 -18 18 -33 20 -156 20 -74 0 -144 -5 -155 -10 -17 -10 -19 -23 -19 -160 l0 -150 -160 0 -160 0 0 140 c0 187 7 180 -178 180 -122 0 -141 -2 -155 -18z m283 -157 l0 -125 -125 0 -125 0 0 125 0 125 125 0 125 0 0 -125z m668 3 l-3 -123 -122 -3 -123 -3 0 126 0 125 125 0 126 0 -3 -122z m2 -236 l0 -87 -460 0 -460 0 0 82 0 83 125 0 c118 0 125 -1 125 -20 0 -19 7 -20 210 -20 197 0 210 1 210 18 0 10 3 22 7 25 3 4 60 7 125 7 l118 0 0 -88z m-670 -187 l0 -65 -125 0 -125 0 0 65 0 65 125 0 125 0 0 -65z m670 0 l0 -65 -125 0 -125 0 0 65 0 65 125 0 125 0 0 -65z m-670 -125 l0 -30 -125 0 -125 0 0 30 0 30 125 0 125 0 0 -30z m670 0 l0 -30 -125 0 -125 0 0 30 0 30 125 0 125 0 0 -30z m-670 -70 c0 -19 -7 -20 -125 -20 -118 0 -125 1 -125 20 0 19 7 20 125 20 118 0 125 -1 125 -20z m668 -2 c3 -16 -8 -18 -122 -18 -120 0 -126 1 -126 20 0 20 5 20 122 18 108 -3 123 -5 126 -20z"/><path d="M3681 7221 c-29 -10 -65 -31 -80 -45 l-26 -26 0 -340 0 -339 30 -31 c53 -56 89 -60 491 -60 l363 0 15 22 c18 26 22 122 6 162 l-10 26 -275 0 -275 0 0 55 0 55 160 0 c197 0 200 2 200 110 0 108 -3 110 -200 110 l-160 0 0 50 0 50 265 0 c317 0 305 -4 305 110 0 117 25 110 -397 110 -322 -1 -363 -3 -412 -19z m759 -91 l0 -60 -285 0 -285 0 0 -60 0 -60 -125 0 -125 0 0 85 c0 80 2 88 26 110 14 13 45 28 68 34 22 5 195 9 384 10 l342 1 0 -60z m-570 -235 l0 -25 180 0 180 0 0 -60 0 -60 -180 0 c-113 0 -180 -4 -180 -10 0 -6 -48 -10 -125 -10 l-125 0 0 95 0 95 125 0 125 0 0 -25z m0 -250 l0 -65 -125 0 -125 0 0 65 0 65 125 0 125 0 0 -65z m348 -105 c213 0 222 -1 222 -19 0 -18 -9 -20 -92 -23 -51 -3 -235 -4 -408 -4 l-315 1 -3 29 -4 29 189 -6 c103 -4 288 -7 411 -7z m222 -90 c0 -21 -3 -21 -367 -18 -325 3 -371 5 -398 20 -29 16 -13 17 368 18 393 0 397 0 397 -20z"/><path d="M5565 7225 c-165 -31 -290 -97 -331 -176 -20 -40 -21 -438 0 -477 35 -66 121 -121 256 -163 65 -20 96 -24 230 -24 174 0 225 9 340 62 86 39 134 81 161 138 24 51 23 61 -1 85 -18 18 -33 20 -160 20 l-139 0 -39 -39 c-30 -30 -49 -41 -86 -46 -63 -10 -154 -2 -191 16 l-30 14 -3 172 -2 172 32 17 c43 22 151 29 207 14 28 -7 55 -24 74 -46 l31 -34 148 0 c147 0 148 0 164 25 15 24 15 28 0 70 -59 154 -382 252 -661 200z m360 -60 c131 -33 255 -114 255 -166 0 -18 -8 -19 -121 -19 l-120 0 -25 29 c-32 39 -102 61 -190 61 -114 0 -204 -43 -204 -97 0 -23 -1 -23 -125 -23 l-125 0 0 28 c0 87 139 171 335 202 79 12 245 4 320 -15z m-405 -340 l0 -95 -125 0 -125 0 0 95 0 95 125 0 125 0 0 -95z m0 -165 c0 -27 7 -47 20 -60 l20 -20 -139 0 c-156 0 -151 -2 -151 76 l0 44 125 0 125 0 0 -40z m660 -34 c0 -44 -6 -46 -151 -46 l-139 0 20 20 c11 11 20 25 20 30 0 6 48 10 125 10 101 0 125 -3 125 -14z m-50 -81 c0 -2 -15 -13 -34 -24 -32 -20 -46 -21 -371 -21 -325 0 -339 1 -371 21 -19 11 -34 22 -34 24 0 2 182 4 405 4 223 0 405 -2 405 -4z m-176 -85 c-83 -33 -321 -37 -429 -6 -47 13 -33 14 200 14 151 1 241 -3 229 -8z"/><path d="M6450 7220 c-32 -11 -66 -31 -82 -49 l-28 -31 0 -364 c0 -339 1 -364 18 -379 27 -24 293 -25 316 -1 14 13 16 56 16 320 l0 304 261 0 c160 0 268 4 280 10 17 9 19 22 19 100 0 78 -2 91 -19 100 -13 6 -148 10 -373 10 -320 -1 -358 -2 -408 -20z m750 -90 l0 -60 -280 0 -280 0 0 -60 0 -60 -125 0 -125 0 0 88 c0 148 7 150 473 151 l337 1 0 -60z m-560 -310 l0 -100 -125 0 -125 0 0 100 0 100 125 0 125 0 0 -100z m0 -185 l0 -55 -125 0 -125 0 0 55 0 55 125 0 125 0 0 -55z m0 -110 l0 -25 -125 0 -125 0 0 25 0 25 125 0 125 0 0 -25z m0 -75 c0 -19 -7 -20 -125 -20 -118 0 -125 1 -125 20 0 19 7 20 125 20 118 0 125 -1 125 -20z"/><path d="M7610 7226 c-146 -27 -264 -83 -317 -152 l-28 -37 -3 -201 c-2 -111 0 -216 3 -234 21 -112 219 -207 455 -219 187 -9 341 25 455 102 98 65 105 88 105 322 0 213 -5 239 -59 291 -46 43 -139 90 -228 113 -101 26 -281 33 -383 15z m356 -61 c80 -19 160 -55 203 -90 31 -26 61 -78 61 -105 0 -6 -45 -10 -123 -10 l-123 0 -11 29 c-33 88 -292 111 -384 34 -16 -14 -29 -33 -29 -44 0 -16 -7 -19 -48 -19 -27 0 -83 -3 -125 -6 l-77 -7 0 29 c0 90 136 172 335 204 77 12 242 4 321 -15z m-105 -156 c69 -23 69 -24 69 -206 l0 -164 -42 -19 c-30 -14 -65 -20 -118 -20 -53 0 -88 6 -117 20 l-43 19 0 170 c0 165 1 171 22 182 55 30 167 38 229 18z m-301 -184 l0 -105 -125 0 -125 0 0 105 0 105 125 0 125 0 0 -105z m670 0 l0 -105 -125 0 -125 0 0 105 0 105 125 0 125 0 0 -105z m-670 -170 c0 -22 8 -41 22 -55 l22 -20 -137 0 c-153 0 -157 2 -157 74 l0 36 125 0 125 0 0 -35z m666 -11 c-3 -25 -8 -50 -12 -55 -3 -5 -66 -9 -140 -9 l-135 0 20 26 c12 15 21 40 21 55 l0 29 126 0 127 0 -7 -46z m-56 -100 c0 -2 -15 -13 -32 -24 -31 -19 -52 -20 -370 -20 -324 0 -338 1 -372 21 -20 12 -36 23 -36 25 0 2 182 3 405 3 223 0 405 -2 405 -5z m-176 -84 c-83 -33 -321 -37 -429 -6 -47 13 -33 14 200 14 151 1 241 -3 229 -8z"/><path d="M8683 7225 c-164 -30 -286 -93 -330 -170 -22 -39 -23 -47 -23 -341 0 -279 1 -302 18 -317 27 -24 293 -25 316 -1 14 13 16 55 16 300 l0 285 38 17 c25 12 63 17 122 17 59 0 97 -5 123 -17 l37 -17 0 -285 c0 -245 2 -287 16 -300 13 -13 42 -16 158 -16 126 0 145 2 159 18 15 16 17 53 17 313 0 264 -2 298 -19 335 -62 137 -386 227 -648 179z m356 -60 c136 -32 243 -105 257 -173 l7 -32 -126 0 c-122 0 -126 1 -129 22 -4 26 -55 63 -107 78 -20 5 -65 10 -101 10 -36 0 -81 -5 -101 -10 -52 -15 -103 -52 -107 -78 -3 -21 -7 -22 -128 -22 -122 0 -124 0 -124 23 0 83 143 166 335 197 78 12 242 4 324 -15z m-409 -342 l0 -108 -125 3 -125 3 0 105 0 104 125 0 125 0 0 -107z m670 -3 l0 -110 -125 0 -125 0 0 110 0 110 125 0 125 0 0 -110z m-670 -185 l0 -55 -125 0 -125 0 0 55 0 55 125 0 125 0 0 -55z m670 -5 l0 -50 -125 0 -125 0 0 50 0 50 125 0 125 0 0 -50z m-670 -105 l0 -25 -125 0 -125 0 0 25 0 25 125 0 125 0 0 -25z m670 0 l0 -25 -125 0 -125 0 0 25 0 25 125 0 125 0 0 -25z m-670 -75 c0 -19 -7 -20 -125 -20 -118 0 -125 1 -125 20 0 19 7 20 125 20 118 0 125 -1 125 -20z m670 0 c0 -19 -7 -20 -125 -20 -118 0 -125 1 -125 20 0 19 7 20 125 20 118 0 125 -1 125 -20z"/><path d="M9471 7221 c-21 -21 -21 -29 -21 -409 0 -340 2 -390 16 -411 l16 -22 322 3 c350 5 375 8 506 69 69 32 123 76 146 121 21 39 20 437 0 477 -34 65 -139 129 -276 166 -54 15 -117 19 -377 22 -305 5 -312 4 -332 -16z m694 -55 c145 -39 255 -118 255 -182 0 -24 0 -24 -124 -24 l-123 0 -6 29 c-5 22 -17 34 -54 52 -43 22 -64 24 -205 27 l-158 3 0 -55 0 -56 -125 0 -125 0 0 116 0 116 303 -5 c237 -3 315 -8 362 -21z m-77 -169 l32 -18 0 -168 c0 -123 -3 -171 -12 -178 -29 -22 -89 -35 -195 -40 l-113 -6 0 218 0 217 128 -4 c96 -3 135 -8 160 -21z m-338 -177 l0 -110 -125 0 -125 0 0 110 0 110 125 0 125 0 0 -110z m670 0 l0 -110 -125 0 -125 0 0 110 0 110 125 0 125 0 0 -110z m-670 -190 l0 -50 -125 0 -125 0 0 50 0 50 125 0 125 0 0 -50z m670 14 c0 -72 -4 -74 -163 -74 l-142 1 28 20 c20 16 27 29 27 55 l0 34 125 0 125 0 0 -36z m-50 -99 c0 -2 -15 -13 -34 -24 -32 -20 -46 -21 -435 -21 -382 0 -401 1 -401 18 0 10 2 21 5 23 5 6 865 9 865 4z m-205 -92 c-39 -12 -118 -17 -357 -20 -307 -5 -308 -5 -308 16 0 21 1 21 358 20 338 -1 354 -2 307 -16z"/><path d="M2013 6283 c92 -2 242 -2 335 0 92 1 16 3 -168 3 -184 0 -260 -2 -167 -3z"/><path d="M4188 6273 c139 -2 364 -2 500 0 136 1 22 2 -253 2 -275 0 -386 -1 -247 -2z"/><path d="M6283 6263 c9 -2 25 -2 35 0 9 3 1 5 -18 5 -19 0 -27 -2 -17 -5z"/><path d="M6498 6263 c90 -2 234 -2 320 0 86 1 13 3 -163 3 -176 0 -247 -2 -157 -3z"/><path d="M8628 6253 c138 -2 366 -2 505 0 138 1 25 2 -253 2 -278 0 -391 -1 -252 -2z"/><path d="M1450 6162 l-30 -30 0 -880 0 -880 31 -26 c38 -33 60 -33 91 -1 34 34 38 65 38 311 l0 211 50 5 c59 6 86 27 100 77 6 22 10 226 10 514 l0 477 120 0 120 0 0 -757 c0 -503 4 -771 11 -796 18 -68 36 -77 145 -77 52 0 104 5 116 11 48 26 48 20 48 930 0 759 -2 855 -16 885 -9 18 -23 35 -32 38 -10 2 -187 8 -394 11 l-377 7 -31 -30z"/><path d="M2467 6179 c-9 -6 -25 -24 -35 -42 -16 -30 -17 -92 -20 -832 -3 -955 -1 -985 82 -985 72 0 86 52 86 333 l0 217 43 0 c23 0 53 7 66 16 50 35 51 48 51 569 l0 485 120 0 120 0 0 -745 c0 -774 3 -828 42 -867 18 -18 31 -19 125 -16 101 3 106 4 129 31 l24 28 0 785 0 784 125 0 125 0 0 -778 c0 -716 1 -780 17 -802 31 -45 44 -49 144 -50 109 0 128 9 148 69 14 44 16 1707 1 1745 -20 55 -2 53 -715 59 -423 4 -666 2 -678 -4z"/><path d="M4028 6171 c-49 -39 -50 -60 -46 -951 3 -871 4 -876 48 -900 11 -6 170 -10 399 -10 l380 0 28 24 28 24 3 331 3 330 -33 82 c-17 45 -46 97 -64 116 -30 31 -31 34 -13 44 22 11 68 99 93 175 15 45 16 94 14 373 l-3 321 -25 24 -25 24 -380 7 c-377 7 -380 7 -407 -14z m522 -526 l0 -295 -125 0 -125 0 0 295 0 295 125 0 125 0 0 -295z m0 -805 l0 -290 -200 0 -200 0 0 160 0 160 41 0 c83 0 109 41 109 175 l0 85 125 0 125 0 0 -290z"/><path d="M5631 6154 c-11 -14 -23 -40 -26 -58 -3 -17 -5 -407 -3 -866 3 -788 4 -837 21 -872 21 -41 42 -52 81 -42 54 13 60 45 64 312 l4 242 34 0 c46 0 87 22 102 55 7 14 12 66 12 115 l0 90 125 0 125 0 0 -359 c0 -372 4 -410 42 -443 27 -24 202 -26 234 -3 44 30 45 55 42 952 l-3 851 -24 26 c-23 25 -29 26 -131 26 -102 0 -108 -1 -131 -26 l-24 -26 -3 -389 -3 -390 -122 3 -122 3 -5 387 -5 386 -24 26 c-23 25 -29 26 -132 26 -104 0 -108 -1 -128 -26z"/><path d="M6644 6162 c-43 -35 -44 -43 -44 -484 0 -474 -5 -420 96 -1008 l49 -284 36 -38 36 -38 225 0 c256 0 260 1 292 81 9 23 47 216 83 428 l67 386 4 415 c2 228 1 434 -3 457 -3 24 -18 56 -31 73 -26 30 -27 30 -128 30 -94 0 -104 -2 -124 -23 -35 -38 -42 -112 -42 -468 l0 -339 -120 0 -119 0 -3 384 c-4 473 8 440 -149 443 -87 3 -108 0 -125 -15z m496 -1049 c0 -10 -20 -135 -45 -278 -25 -143 -45 -266 -45 -272 0 -10 -24 -13 -85 -13 -80 0 -85 1 -89 23 -8 37 -46 274 -46 286 0 7 21 11 54 11 42 0 55 4 61 18 20 49 23 78 14 130 -5 31 -11 69 -14 85 l-4 27 99 0 c89 0 100 -2 100 -17z"/><path d="M7626 6149 l-26 -31 0 -862 c0 -604 3 -873 11 -895 6 -17 19 -36 29 -41 11 -6 172 -10 404 -10 440 0 415 -5 435 89 14 64 14 295 1 375 -6 37 -18 68 -31 83 -21 21 -31 23 -120 23 -87 0 -101 -2 -124 -23 -33 -28 -44 -79 -45 -209 l0 -98 -200 0 -200 0 0 160 0 160 43 0 c23 0 53 7 66 16 50 35 51 48 51 569 l0 485 120 0 120 0 0 -102 c1 -121 11 -173 40 -202 18 -19 32 -21 125 -21 119 0 139 10 155 81 13 53 12 349 -1 404 -19 85 8 80 -435 80 l-392 0 -26 -31z"/><path d="M8626 6149 l-26 -31 0 -872 c0 -862 0 -874 20 -899 28 -35 56 -42 86 -22 48 31 54 65 54 315 l0 230 44 0 c24 0 52 3 61 6 30 12 48 66 53 161 l5 93 88 0 c84 0 89 -1 94 -22 30 -133 55 -367 55 -516 0 -175 9 -231 41 -263 16 -16 33 -19 118 -19 91 0 102 2 128 24 l28 24 0 249 c0 213 -3 265 -22 368 -30 161 -49 222 -78 247 l-24 21 24 29 c61 72 105 339 105 637 0 190 -1 199 -23 232 l-23 34 -105 3 -105 3 -29 -31 -30 -31 -6 -237 c-5 -192 -12 -265 -33 -382 -14 -80 -26 -146 -26 -147 0 -2 -40 -3 -90 -3 l-90 0 0 358 c0 368 -4 416 -41 453 -16 16 -33 19 -123 19 -104 0 -104 0 -130 -31z"/><path d="M9631 6163 c-33 -28 -44 -115 -39 -304 7 -229 20 -249 164 -249 140 0 164 32 164 215 l0 115 120 0 120 0 0 -295 0 -295 -265 0 -265 0 -17 -27 c-17 -25 -18 -63 -18 -463 0 -239 4 -452 8 -473 4 -21 17 -47 28 -58 18 -18 36 -19 409 -19 373 0 391 1 409 19 29 29 33 65 29 294 l-3 209 -28 24 c-25 22 -37 24 -120 24 -146 0 -167 -26 -167 -215 l0 -115 -200 0 -200 0 0 160 0 160 43 0 c84 0 117 51 117 180 l0 80 251 0 251 0 29 29 29 29 0 459 c0 416 -2 461 -18 493 l-17 35 -396 3 c-366 2 -398 1 -418 -15z"/><path d="M9401 2488 c0 -16 2 -18 6 -8 3 8 11 18 17 22 7 5 4 8 -6 8 -12 0 -18 -7 -17 -22z"/><path d="M9528 2493 c12 -2 32 -2 45 0 12 2 2 4 -23 4 -25 0 -35 -2 -22 -4z"/><path d="M9433 2135 c0 -27 2 -38 4 -22 2 15 2 37 0 50 -2 12 -4 0 -4 -28z"/><path d="M2755 1620 c33 -33 62 -60 64 -60 3 0 -21 27 -54 60 -33 33 -62 60 -64 60 -3 0 21 -27 54 -60z"/><path d="M5475 1618 l-60 -63 63 60 c58 55 67 65 59 65 -1 0 -29 -28 -62 -62z"/><path d="M6210 675 c35 -36 67 -65 69 -65 3 0 -24 29 -59 65 -35 36 -67 65 -69 65 -3 0 24 -29 59 -65z"/><path d="M8849 673 l-34 -38 38 34 c34 33 42 41 34 41 -2 0 -19 -17 -38 -37z"/></g></svg>