<?xml version="1.0" encoding="UTF-8"?>
<svg width="1440px" height="680px" viewBox="0 0 1440 680" version="1.1" xmlns="http://www.w3.org/2000/svg" xmlns:xlink="http://www.w3.org/1999/xlink">
    <!-- Generator: Sketch 49.3 (51167) - http://www.bohemiancoding.com/sketch -->
    <title>Desktop HD Copy 2</title>
    <desc>Created with Sketch.</desc>
    <defs></defs>
    <g id="Desktop-HD-Copy-2" stroke="none" stroke-width="1" fill="none" fill-rule="evenodd">
        <g id="Group" opacity="0.632133152" transform="translate(167.000000, 109.000000) rotate(40.000000) translate(-167.000000, -109.000000) translate(120.000000, 92.000000)" fill="#000000">
            <polygon id="Rectangle-3" fill-opacity="0.453323143" points="0 0 94 15 6.25473638 15"></polygon>
            <polygon id="Rectangle-3" fill-opacity="0.306017889" points="6.6655325 15 94 15 5 34"></polygon>
        </g>
        <g id="Group" transform="translate(166.848792, 624.276595) rotate(40.000000) translate(-166.848792, -624.276595) translate(6.848792, 566.276595)" fill="#000000">
            <polygon id="Rectangle-3" fill-opacity="0.453323143" points="0.629509692 0.313300106 320 50.4047619 21.8803419 50.4047619"></polygon>
            <polygon id="Rectangle-3" fill-opacity="0.306017889" points="21.8803419 50.4047619 320 50.4047619 16.1949808 115.597485"></polygon>
        </g>
        <g id="Group" opacity="0.821105072" transform="translate(816.000000, 684.000000) rotate(40.000000) translate(-816.000000, -684.000000) translate(739.000000, 656.000000)" fill="#000000">
            <polygon id="Rectangle-3" fill-opacity="0.453323143" points="0.302951539 0.151248327 154 24.3333333 10.5299145 24.3333333"></polygon>
            <polygon id="Rectangle-3" fill-opacity="0.306017889" points="10.5299145 24.3333333 154 24.3333333 7.79383452 55.8056824"></polygon>
        </g>
        <g id="Group" opacity="0.15551404" transform="translate(237.000000, 350.000000) rotate(40.000000) translate(-237.000000, -350.000000) translate(204.000000, 338.000000)" fill="#000000">
            <polygon id="Rectangle-3" fill-opacity="0.453323143" points="0.129836374 0.0648207116 66 10.4285714 4.51282051 10.4285714"></polygon>
            <polygon id="Rectangle-3" fill-opacity="0.306017889" points="4.51282051 10.4285714 66 10.4285714 3.3402148 23.916721"></polygon>
        </g>
        <g id="Group" transform="translate(1333.924396, 654.638298) rotate(40.000000) translate(-1333.924396, -654.638298) translate(1253.924396, 625.638298)" fill="#000000">
            <polygon id="Rectangle-3" fill-opacity="0.453323143" points="0.314754846 0.156650053 160 25.202381 10.9401709 25.202381"></polygon>
            <polygon id="Rectangle-3" fill-opacity="0.306017889" points="10.9401709 25.202381 160 25.202381 8.09749041 57.7987425"></polygon>
        </g>
        <g id="Group" opacity="0.954313859" transform="translate(1301.500000, 109.500000) rotate(40.000000) translate(-1301.500000, -109.500000) translate(1231.000000, 84.000000)" fill="#000000">
            <polygon id="Rectangle-3" fill-opacity="0.453323143" points="0.277377708 0.137744012 141 22.1607143 9.64102564 22.1607143"></polygon>
            <polygon id="Rectangle-3" fill-opacity="0.306017889" points="9.64102564 22.1607143 141 22.1607143 7.13591343 50.8230322"></polygon>
        </g>
        <g id="Group" opacity="0.103713768" transform="translate(1254.000000, 285.000000) rotate(40.000000) translate(-1254.000000, -285.000000) translate(1226.000000, 275.000000)" fill="#000000">
            <polygon id="Rectangle-3" fill-opacity="0.453323143" points="0.110164196 0.0540172597 56 8.69047619 3.82905983 8.69047619"></polygon>
            <polygon id="Rectangle-3" fill-opacity="0.306017889" points="3.82905983 8.69047619 56 8.69047619 2.83412164 19.9306009"></polygon>
        </g>
        <g id="Group" opacity="0.586163949" transform="translate(341.931478, 581.233773) rotate(40.000000) translate(-341.931478, -581.233773) translate(294.931478, 564.233773)" fill="#000000">
            <polygon id="Rectangle-3" fill-opacity="0.453323143" points="0.184918472 0.0918293415 94 14.7738095 6.42735043 14.7738095"></polygon>
            <polygon id="Rectangle-3" fill-opacity="0.306017889" points="6.42735043 14.7738095 94 14.7738095 4.75727562 33.8820215"></polygon>
        </g>
        <g id="Group" opacity="0.837182971" transform="translate(937.500000, 109.500000) rotate(40.000000) translate(-937.500000, -109.500000) translate(881.000000, 89.000000)" fill="#000000">
            <polygon id="Rectangle-3" fill-opacity="0.453323143" points="0.22229561 0.110735382 113 17.8154762 7.72649573 17.8154762"></polygon>
            <polygon id="Rectangle-3" fill-opacity="0.306017889" points="7.72649573 17.8154762 113 17.8154762 5.7188526 40.8577318"></polygon>
        </g>
        <g id="Group" opacity="0.80712183" transform="translate(1333.870038, 509.063022) rotate(40.000000) translate(-1333.870038, -509.063022) translate(1272.870038, 487.063022)" fill="#000000">
            <polygon id="Rectangle-3" fill-opacity="0.453323143" points="0.24000057 0.118837971 122 19.1190476 8.34188034 19.1190476"></polygon>
            <polygon id="Rectangle-3" fill-opacity="0.306017889" points="8.34188034 19.1190476 122 19.1190476 6.17433644 43.8473219"></polygon>
        </g>
    </g>
</svg>