<?xml version="1.0" encoding="UTF-8"?>
<svg width="60px" height="60px" viewBox="0 0 60 60" version="1.1" xmlns="http://www.w3.org/2000/svg" xmlns:xlink="http://www.w3.org/1999/xlink">
    <!-- Generator: Sketch 46.2 (44496) - http://www.bohemiancoding.com/sketch -->
    <title>linkedin-social</title>
    <desc>Created with Sketch.</desc>
    <defs></defs>
    <g id="Page-1" stroke="none" stroke-width="1" fill="none" fill-rule="evenodd">
        <g id="linkedin-social" fill="#010101">
            <path d="M46.837,44.137 L46.837,32.425 C46.837,26.15 43.487,23.23 39.021,23.23 C35.417,23.23 33.802,25.213 32.902,26.604 L32.902,23.71 L26.112,23.71 C26.202,25.627 26.112,44.137 26.112,44.137 L32.902,44.137 L32.902,32.729 C32.902,32.12 32.946,31.51 33.126,31.074 C33.616,29.854 34.733,28.591 36.608,28.591 C39.066,28.591 40.048,30.464 40.048,33.209 L40.048,44.138 L46.837,44.138 L46.837,44.137 Z M18.959,20.922 C21.326,20.922 22.801,19.352 22.801,17.391 C22.757,15.388 21.326,13.863 19.004,13.863 C16.682,13.863 15.163,15.387 15.163,17.391 C15.163,19.352 16.637,20.922 18.916,20.922 L18.959,20.922 Z M22.354,44.137 L22.354,23.71 L15.565,23.71 L15.565,44.137 L22.354,44.137 Z M0,0 L60,0 L60,60 L0,60 L0,0 Z" id="Shape"></path>
        </g>
    </g>
</svg>