<svg width="60" height="60" xmlns="http://www.w3.org/2000/svg"><path d="M46.837 44.137V32.425c0-6.275-3.35-9.195-7.816-9.195-3.604 0-5.219 1.983-6.119 3.374V23.71h-6.79c.09 1.917 0 20.427 0 20.427h6.79V32.729c0-.609.044-1.219.224-1.655.49-1.22 1.607-2.483 3.482-2.483 2.458 0 3.44 1.873 3.44 4.618v10.929h6.789v-.001zM18.959 20.922c2.367 0 3.842-1.57 3.842-3.531-.044-2.003-1.475-3.528-3.797-3.528s-3.841 1.524-3.841 3.528c0 1.961 1.474 3.531 3.753 3.531h.043zm3.395 23.215V23.71h-6.789v20.427h6.789zM0 0h60v60H0V0z" fill="#010101" fill-rule="evenodd"/></svg>