<?xml version="1.0" encoding="UTF-8"?>
<svg width="437px" height="97px" viewBox="0 0 437 97" version="1.1" xmlns="http://www.w3.org/2000/svg" xmlns:xlink="http://www.w3.org/1999/xlink">
    <!-- Generator: Sketch 46.2 (44496) - http://www.bohemiancoding.com/sketch -->
    <title>Group</title>
    <desc>Created with Sketch.</desc>
    <defs></defs>
    <g id="Page-1" stroke="none" stroke-width="1" fill="none" fill-rule="evenodd">
        <g id="Desktop-HD" transform="translate(-274.000000, -298.000000)">
            <g id="Group" transform="translate(274.000000, 298.000000)">
                <path d="M9.84765939,85.7752653 C3.38810064,78.3865919 0.158369705,68.1886059 0.158369705,55.1810013 L0.158369705,2.08900299 L17.1478092,2.08900299 L17.1478092,50.8009114 C17.1478092,57.2604702 17.7229667,62.6359813 18.8732991,66.9276059 C20.0236315,71.2192306 22.1694116,74.5595687 25.3107039,76.9487206 C28.4519962,79.3378724 32.8984066,80.5324305 38.6500685,80.5324305 C44.4017304,80.5324305 48.8481408,79.3378724 51.989433,76.9487206 C55.1307253,74.5595687 57.2765054,71.2192306 58.4268378,66.9276059 C59.5771702,62.6359813 60.1523278,57.2604702 60.1523278,50.8009114 L60.1523278,2.08900299 L77.1417672,2.08900299 L77.1417672,55.1810013 C77.1417672,68.1886059 73.9120363,78.3865919 67.4524775,85.7752653 C60.9929188,93.1639387 51.3922118,96.8582199 38.6500685,96.8582199 C25.9079252,96.8582199 16.3072181,93.1639387 9.84765939,85.7752653 Z" id="Path" fill="#4B2E83"></path>
                <path d="M227.742041,72.9668207 L193.895892,72.9668207 L186.197552,95 L178.913655,72.3029748 L202.788802,2.08900299 L218.849131,2.08900299 L251.8989,95 L235.440381,95 L227.742041,72.9668207 Z M222.432841,58.1010612 L210.885332,24.9185623 L199.205092,58.1010612 L222.432841,58.1010612 Z" id="Combined-Shape" fill="#A0A0A0"></path>
                <polygon id="Path" fill="#4B2E83" points="87.6274369 2.08900299 105.280526 2.08900299 123.862726 68.0558109 144.568605 2.08900299 156.381575 2.08900299 178.914296 72.3042968 171.194999 95 150.408725 33.015092 129.835576 95 113.775246 95"></polygon>
                <path d="M278.245804,90.8853701 C271.034105,86.9034504 265.43738,81.2624819 261.45546,73.9622957 C257.47354,66.6621094 255.48261,58.1895961 255.48261,48.5445015 C255.48261,38.987894 257.539905,30.5596236 261.654555,23.2594373 C265.769205,15.959251 271.476538,10.2961612 278.776724,6.26999786 C286.076911,2.24383452 294.372452,0.230783051 303.663599,0.230783051 C312.600796,0.230783051 320.608759,2.04474152 327.687728,5.67271288 L325.829508,21.8657724 C322.024562,20.1845173 318.374524,18.8793521 314.879283,17.9502375 C311.384043,17.0211229 307.601276,16.5565725 303.530869,16.5565725 C294.062748,16.5565725 286.784793,19.4766032 281.696784,25.3167522 C276.608776,31.1569013 274.06481,38.8994069 274.06481,48.5445015 C274.06481,58.1895961 276.564533,65.9321017 281.564054,71.7722507 C286.563576,77.6123998 293.753045,80.5324305 303.132679,80.5324305 C307.291573,80.5324305 311.118583,80.0900016 314.613823,79.2051305 C318.109064,78.3202594 321.847588,76.9929728 325.829508,75.2232306 L327.687728,91.4162901 C319.98935,95.0442615 311.804415,96.8582199 303.132679,96.8582199 C293.753045,96.8582199 285.457504,94.8672899 278.245804,90.8853701 Z" id="Path" fill="#A0A0A0"></path>
                <polygon id="Path" fill="#A0A0A0" points="418.740505 95 410.776705 32.749632 387.018036 75.4886906 363.126637 32.882362 355.162837 95 337.509748 95 350.384557 2.08900299 364.321207 2.08900299 387.018036 44.4298716 409.582135 2.08900299 423.518785 2.08900299 436.393594 95"></polygon>
            </g>
        </g>
    </g>
</svg>