<svg width="1440" height="680" xmlns="http://www.w3.org/2000/svg"><g fill-rule="evenodd"><g opacity=".632"><path fill-opacity=".453" d="M141.923 65.766l62.367 71.913-67.217-56.402z"/><path fill-opacity=".306" d="M137.388 81.541l66.902 56.138-80.391-42.653z"/></g><path fill-opacity=".453" d="M81.844 477.645l212.454 243.66L65.925 529.676z"/><path fill-opacity=".306" d="M65.925 529.677l228.373 191.627L19.665 575.963z"/><g opacity=".821"><path fill-opacity=".453" d="M775.147 613.367l102.195 117.319-109.904-92.221z"/><path fill-opacity=".306" d="M767.438 638.465l109.904 92.22-132.23-69.87z"/></g><g opacity=".156"><path fill-opacity=".453" d="M219.492 319.729l43.798 50.28-47.102-39.524z"/><path fill-opacity=".306" d="M216.188 330.485l47.102 39.523-56.67-29.944z"/></g><path fill-opacity=".453" d="M1291.422 581.322l106.227 121.83-114.186-95.814z"/><path fill-opacity=".306" d="M1283.463 607.338l114.186 95.814-137.317-72.67z"/><g opacity=".954"><path fill-opacity=".453" d="M1264.009 44.933l93.644 107.325-100.627-84.435z"/><path fill-opacity=".306" d="M1257.026 67.823l100.627 84.435-120.97-64.09z"/></g><g opacity=".104"><path fill-opacity=".453" d="M1239.028 259.454l37.263 42.54-39.965-33.534z"/><path fill-opacity=".306" d="M1236.326 268.46l39.965 33.535-47.952-25.564z"/></g><g opacity=".586"><path fill-opacity=".453" d="M316.937 538.19l62.43 71.55-67.085-56.291z"/><path fill-opacity=".306" d="M312.282 553.449l67.085 56.29-80.647-42.726z"/></g><g opacity=".837"><path fill-opacity=".453" d="M907.495 57.706l75.012 86.055-80.644-67.668z"/><path fill-opacity=".306" d="M901.863 76.093l80.644 67.668-96.993-51.308z"/></g><g opacity=".807"><path fill-opacity=".453" d="M1301.39 453.245l81.06 92.821-87.067-73.058z"/><path fill-opacity=".306" d="M1295.383 473.008l87.068 73.058-104.623-55.508z"/></g></g></svg>